<svg width="41" height="41" viewBox="0 0 41 41" fill="none" xmlns="http://www.w3.org/2000/svg">
<circle cx="20.5" cy="20.5" r="20.5" fill="#C4C4C4"/>
<path d="M17.2442 16.6797H20.8379C20.3805 13.3718 17.4647 11.044 13.6831 11.044C9.26443 11.044 5.85853 14.2294 5.85853 19.6527C5.85853 24.9453 9.0439 28.2287 13.7566 28.2287C17.9793 28.2287 20.9931 25.5579 20.9931 21.1555V19.0483H13.9935V21.7109H17.5872C17.5382 23.7855 16.1252 25.1005 13.7729 25.1005C11.1185 25.1005 9.44411 23.1158 9.44411 19.62C9.44411 16.1406 11.1838 14.1722 13.7403 14.1722C15.5617 14.1722 16.795 15.1115 17.2442 16.6797ZM29.2526 28.245C33.0587 28.245 35.4273 25.6396 35.4273 21.7763C35.4273 17.8885 33.0587 15.2912 29.2526 15.2912C25.4465 15.2912 23.0779 17.8885 23.0779 21.7763C23.0779 25.6396 25.4465 28.245 29.2526 28.245ZM29.269 25.5497C27.5129 25.5497 26.6145 23.9407 26.6145 21.7518C26.6145 19.5629 27.5129 17.9457 29.269 17.9457C30.9923 17.9457 31.8908 19.5629 31.8908 21.7518C31.8908 23.9407 30.9923 25.5497 29.269 25.5497Z" fill="white"/>
</svg>
