<svg width="278" height="97" viewBox="0 0 278 97" fill="none" xmlns="http://www.w3.org/2000/svg">
<path d="M20.9975 68.5625C17.8725 68.5625 15.1017 67.8958 12.685 66.5625C10.2683 65.2083 8.36208 63.2396 6.96625 60.6562C5.59125 58.0521 4.90375 54.875 4.90375 51.125C4.90375 47.375 5.64333 44.1667 7.1225 41.5C8.6225 38.8333 10.6642 36.7917 13.2475 35.375C15.8308 33.9375 18.7371 33.2188 21.9663 33.2188C23.9663 33.2188 25.8933 33.4271 27.7475 33.8438C29.6017 34.2396 31.6121 35.125 33.7788 36.5L31.7788 42.0625C30.1329 40.9167 28.4663 40.0938 26.7788 39.5938C25.1121 39.0938 23.4454 38.8438 21.7788 38.8438C18.6746 38.8438 16.1954 39.9062 14.3413 42.0312C12.5079 44.1562 11.5913 47 11.5913 50.5625C11.5913 54.3542 12.435 57.3542 14.1225 59.5625C15.81 61.75 18.0392 62.8438 20.81 62.8438C22.1642 62.8438 23.3829 62.7292 24.4663 62.5C25.5704 62.25 26.7996 61.7917 28.1538 61.125V54.875H20.7788V49.625H34.1225V64.375C31.6017 66.0625 29.3204 67.1875 27.2788 67.75C25.2579 68.2917 23.1642 68.5625 20.9975 68.5625ZM49.3738 68.5625C46.0821 68.5625 43.3842 67.5 41.28 65.375C39.1758 63.2292 38.1238 60.1458 38.1238 56.125C38.1238 53.4375 38.655 51.1667 39.7175 49.3125C40.8008 47.4583 42.2279 46.0521 43.9988 45.0938C45.7904 44.1146 47.7383 43.625 49.8425 43.625C53.155 43.625 55.8529 44.6979 57.9363 46.8438C60.0404 48.9896 61.0925 52.0833 61.0925 56.125C61.0925 58.8125 60.5508 61.0833 59.4675 62.9375C58.405 64.7708 56.9883 66.1667 55.2175 67.125C53.4467 68.0833 51.4988 68.5625 49.3738 68.5625ZM49.6238 63.3125C51.1238 63.3125 52.3113 62.6771 53.1863 61.4062C54.0821 60.1146 54.53 58.3542 54.53 56.125C54.53 53.875 54.1133 52.1146 53.28 50.8438C52.4467 49.5521 51.2279 48.9062 49.6238 48.9062C48.1029 48.9062 46.8946 49.5521 45.9988 50.8438C45.1238 52.1146 44.6863 53.875 44.6863 56.125C44.6863 58.3542 45.1029 60.1146 45.9363 61.4062C46.7904 62.6771 48.0196 63.3125 49.6238 63.3125ZM75.2812 68.5625C71.9896 68.5625 69.2917 67.5 67.1875 65.375C65.0833 63.2292 64.0312 60.1458 64.0312 56.125C64.0312 53.4375 64.5625 51.1667 65.625 49.3125C66.7083 47.4583 68.1354 46.0521 69.9062 45.0938C71.6979 44.1146 73.6458 43.625 75.75 43.625C79.0625 43.625 81.7604 44.6979 83.8438 46.8438C85.9479 48.9896 87 52.0833 87 56.125C87 58.8125 86.4583 61.0833 85.375 62.9375C84.3125 64.7708 82.8958 66.1667 81.125 67.125C79.3542 68.0833 77.4062 68.5625 75.2812 68.5625ZM75.5312 63.3125C77.0312 63.3125 78.2188 62.6771 79.0938 61.4062C79.9896 60.1146 80.4375 58.3542 80.4375 56.125C80.4375 53.875 80.0208 52.1146 79.1875 50.8438C78.3542 49.5521 77.1354 48.9062 75.5312 48.9062C74.0104 48.9062 72.8021 49.5521 71.9062 50.8438C71.0312 52.1146 70.5938 53.875 70.5938 56.125C70.5938 58.3542 71.0104 60.1146 71.8438 61.4062C72.6979 62.6771 73.9271 63.3125 75.5312 63.3125ZM99.9075 68.5625C97.0117 68.5625 94.6679 67.5312 92.8763 65.4688C91.0846 63.4062 90.1888 60.6562 90.1888 57.2188C90.1888 54.4479 90.6992 52.0521 91.72 50.0312C92.7617 47.9896 94.1471 46.4167 95.8763 45.3125C97.6263 44.1875 99.5533 43.625 101.658 43.625C102.574 43.625 103.553 43.8333 104.595 44.25C105.637 44.6458 106.574 45.1042 107.408 45.625V39.0625C107.408 37.1875 107.366 35.5417 107.283 34.125C107.199 32.6875 107.043 31.4792 106.814 30.5H113.97V55.5938C113.97 58.5521 114.137 61.0312 114.47 63.0312C114.803 65.0312 115.22 66.6875 115.72 68H109.283C109.116 67.625 108.908 67.0625 108.658 66.3125C108.408 65.5417 108.189 64.7396 108.001 63.9062C106.939 65.4062 105.73 66.5625 104.376 67.375C103.022 68.1667 101.533 68.5625 99.9075 68.5625ZM101.189 63.3125C102.439 63.3125 103.647 62.8229 104.814 61.8438C105.98 60.8646 106.845 59.7917 107.408 58.625V50.7188C106.324 50.1771 105.366 49.8021 104.533 49.5938C103.72 49.3646 102.762 49.25 101.658 49.25C100.428 49.25 99.3033 49.8958 98.2825 51.1875C97.2617 52.4583 96.7513 54.2396 96.7513 56.5312C96.7513 61.0521 98.2304 63.3125 101.189 63.3125Z" fill="#255818"/>
<circle cx="144.53" cy="47.05" r="24.05" fill="#255818"/>
<path d="M144.53 97L122.42 56.485H166.64L144.53 97Z" fill="#255818"/>
<path d="M166.732 79.4688V56.6562C166.732 53.7396 166.67 51.25 166.545 49.1875C166.441 47.125 166.118 45.4271 165.576 44.0938H172.014C172.18 44.4479 172.347 44.9583 172.514 45.625C172.701 46.2917 172.847 47.1146 172.951 48.0938C174.035 46.7812 175.295 45.7083 176.732 44.875C178.191 44.0417 179.764 43.625 181.451 43.625C183.201 43.625 184.732 44.1354 186.045 45.1562C187.357 46.1771 188.368 47.5833 189.076 49.375C189.805 51.1458 190.17 53.1771 190.17 55.4688C190.17 58.1354 189.701 60.4583 188.764 62.4375C187.826 64.3958 186.566 65.9062 184.982 66.9688C183.399 68.0312 181.649 68.5625 179.732 68.5625C178.503 68.5625 177.399 68.375 176.42 68C175.441 67.6458 174.399 67.1458 173.295 66.5V71.5C173.295 73.375 173.337 74.9167 173.42 76.125C173.524 77.3542 173.68 78.4688 173.889 79.4688H166.732ZM178.17 63.1875C179.607 63.1875 180.868 62.5625 181.951 61.3125C183.055 60.0417 183.607 58.3333 183.607 56.1875C183.607 54.0625 183.212 52.375 182.42 51.125C181.628 49.8542 180.524 49.2188 179.107 49.2188C178.066 49.2188 177.003 49.6562 175.92 50.5312C174.837 51.3854 173.962 52.6458 173.295 54.3125V60.9688C174.503 61.8646 175.42 62.4583 176.045 62.75C176.67 63.0417 177.378 63.1875 178.17 63.1875ZM204.359 68.5625C201.067 68.5625 198.369 67.5 196.265 65.375C194.161 63.2292 193.109 60.1458 193.109 56.125C193.109 53.4375 193.64 51.1667 194.702 49.3125C195.786 47.4583 197.213 46.0521 198.984 45.0938C200.775 44.1146 202.723 43.625 204.827 43.625C208.14 43.625 210.838 44.6979 212.921 46.8438C215.025 48.9896 216.077 52.0833 216.077 56.125C216.077 58.8125 215.536 61.0833 214.452 62.9375C213.39 64.7708 211.973 66.1667 210.202 67.125C208.432 68.0833 206.484 68.5625 204.359 68.5625ZM204.609 63.3125C206.109 63.3125 207.296 62.6771 208.171 61.4062C209.067 60.1146 209.515 58.3542 209.515 56.125C209.515 53.875 209.098 52.1146 208.265 50.8438C207.432 49.5521 206.213 48.9062 204.609 48.9062C203.088 48.9062 201.88 49.5521 200.984 50.8438C200.109 52.1146 199.671 53.875 199.671 56.125C199.671 58.3542 200.088 60.1146 200.921 61.4062C201.775 62.6771 203.005 63.3125 204.609 63.3125ZM230.11 68.5625C228.631 68.5625 227.277 68.3646 226.048 67.9688C224.839 67.5729 223.87 66.875 223.141 65.875C222.433 64.875 222.079 63.4792 222.079 61.6875V37.0625H228.641V57.1875C228.641 58.9583 228.735 60.2708 228.923 61.125C229.131 61.9792 229.454 62.5417 229.891 62.8125C230.329 63.0625 230.902 63.1875 231.61 63.1875C232.214 63.1875 232.881 63.0417 233.61 62.75C234.36 62.4375 235.204 62 236.141 61.4375V66.6875C235.016 67.375 233.943 67.8542 232.923 68.125C231.902 68.4167 230.964 68.5625 230.11 68.5625ZM217.61 49.1562V44.4688H235.766V49.1562H217.61ZM248.674 68.5625C246.59 68.5625 244.663 68.3021 242.893 67.7812C241.143 67.2396 239.757 66.6146 238.736 65.9062L240.018 60.1562C241.184 61.1146 242.59 61.8854 244.236 62.4688C245.903 63.0312 247.424 63.3125 248.799 63.3125C249.903 63.3125 250.799 63.1042 251.486 62.6875C252.195 62.25 252.549 61.7604 252.549 61.2188C252.549 60.5312 252.184 59.9271 251.455 59.4062C250.747 58.8646 249.278 58.3542 247.049 57.875C244.84 57.3958 243.153 56.8229 241.986 56.1562C240.82 55.4896 240.018 54.7292 239.58 53.875C239.163 53.0208 238.955 52.1042 238.955 51.125C238.955 50.5625 239.111 49.8646 239.424 49.0312C239.736 48.1771 240.268 47.3438 241.018 46.5312C241.788 45.6979 242.83 45.0104 244.143 44.4688C245.476 43.9062 247.143 43.625 249.143 43.625C251.059 43.625 252.715 43.8333 254.111 44.25C255.528 44.6458 256.684 45.0625 257.58 45.5L256.674 51.0312C255.799 50.5521 254.695 50.0625 253.361 49.5625C252.028 49.0417 250.549 48.7812 248.924 48.7812C247.549 48.7812 246.601 49.0208 246.08 49.5C245.559 49.9583 245.299 50.4271 245.299 50.9062C245.299 51.4896 245.559 51.9479 246.08 52.2812C246.622 52.5938 247.924 52.9583 249.986 53.375C251.611 53.6875 253.09 54.125 254.424 54.6875C255.778 55.25 256.861 56.0104 257.674 56.9688C258.486 57.9271 258.893 59.1458 258.893 60.625C258.893 62.125 258.434 63.4792 257.518 64.6875C256.622 65.875 255.403 66.8229 253.861 67.5312C252.32 68.2188 250.59 68.5625 248.674 68.5625Z" fill="#255818"/>
<path d="M144.5 68.5625C142.042 68.5625 139.75 68.2708 137.625 67.6875C135.521 67.1042 133.823 66.3542 132.531 65.4375L133.719 59C135.385 60.3333 137.125 61.3125 138.938 61.9375C140.75 62.5417 142.604 62.8438 144.5 62.8438C146.021 62.8438 147.375 62.4375 148.562 61.625C149.771 60.8125 150.375 59.6562 150.375 58.1562C150.375 57.4896 150.177 56.875 149.781 56.3125C149.406 55.75 148.646 55.1771 147.5 54.5938C146.354 54.0104 144.646 53.3646 142.375 52.6562C139.938 51.8854 138.073 51.0312 136.781 50.0938C135.51 49.1562 134.635 48.1146 134.156 46.9688C133.698 45.8229 133.469 44.5521 133.469 43.1562C133.469 41.7604 133.875 40.2917 134.688 38.75C135.521 37.2083 136.812 35.9062 138.562 34.8438C140.333 33.7604 142.625 33.2188 145.438 33.2188C147.417 33.2188 149.188 33.3854 150.75 33.7188C152.333 34.0521 153.958 34.5833 155.625 35.3125L154.562 41.5312C152.729 40.6146 151.125 39.9375 149.75 39.5C148.375 39.0625 146.854 38.8438 145.188 38.8438C143.729 38.8438 142.531 39.25 141.594 40.0625C140.656 40.8542 140.188 41.7292 140.188 42.6875C140.188 43.3542 140.365 43.9375 140.719 44.4375C141.073 44.9375 141.771 45.4375 142.812 45.9375C143.875 46.4167 145.427 46.9792 147.469 47.625C150.594 48.5833 152.979 49.8229 154.625 51.3438C156.271 52.8646 157.094 54.8646 157.094 57.3438C157.094 59.5938 156.521 61.5625 155.375 63.25C154.25 64.9167 152.729 66.2188 150.812 67.1562C148.917 68.0938 146.812 68.5625 144.5 68.5625Z" fill="#D1D1D1"/>
</svg>
