<svg width="132" height="50" viewBox="0 0 132 50" fill="none" xmlns="http://www.w3.org/2000/svg">
<path d="M84.1461 24.293C84.1461 31.0823 78.685 36.5861 71.9484 36.5861C65.2118 36.5861 59.7507 31.0823 59.7507 24.293C59.7507 17.5038 65.2118 12 71.9484 12C78.685 12 84.1461 17.5038 84.1461 24.293Z" fill="#69D2AA"/>
<path d="M71.9484 49.8247L60.7348 29.1157H83.162L71.9484 49.8247Z" fill="#69D2AA"/>
<path d="M72.2645 35.2637C71.1121 35.2637 70.0379 35.127 69.0418 34.8535C68.0555 34.5801 67.2596 34.2285 66.6541 33.7988L67.2107 30.7812C67.992 31.4062 68.8074 31.8652 69.657 32.1582C70.5066 32.4414 71.3758 32.583 72.2645 32.583C72.9773 32.583 73.6121 32.3926 74.1688 32.0117C74.7352 31.6309 75.0184 31.0889 75.0184 30.3857C75.0184 30.0732 74.9256 29.7852 74.74 29.5215C74.5643 29.2578 74.2078 28.9893 73.6707 28.7158C73.1336 28.4424 72.3328 28.1396 71.2684 27.8076C70.1258 27.4463 69.2518 27.0459 68.6463 26.6064C68.0506 26.167 67.6404 25.6787 67.4158 25.1416C67.201 24.6045 67.0936 24.0088 67.0936 23.3545C67.0936 22.7002 67.284 22.0117 67.6648 21.2891C68.0555 20.5664 68.6609 19.9561 69.4813 19.458C70.3113 18.9502 71.3855 18.6963 72.7039 18.6963C73.6316 18.6963 74.4617 18.7744 75.1941 18.9307C75.9363 19.0869 76.698 19.3359 77.4793 19.6777L76.9813 22.5928C76.1219 22.1631 75.3699 21.8457 74.7254 21.6406C74.0809 21.4355 73.368 21.333 72.5867 21.333C71.9031 21.333 71.3416 21.5234 70.9021 21.9043C70.4627 22.2754 70.243 22.6855 70.243 23.1348C70.243 23.4473 70.326 23.7207 70.492 23.9551C70.658 24.1895 70.9852 24.4238 71.4734 24.6582C71.9715 24.8828 72.699 25.1465 73.6561 25.4492C75.1209 25.8984 76.2391 26.4795 77.0105 27.1924C77.782 27.9053 78.1678 28.8428 78.1678 30.0049C78.1678 31.0596 77.8992 31.9824 77.3621 32.7734C76.8348 33.5547 76.1219 34.165 75.2234 34.6045C74.3348 35.0439 73.3484 35.2637 72.2645 35.2637ZM80.307 40.376V29.6826C80.307 28.3154 80.2777 27.1484 80.2191 26.1816C80.1703 25.2148 80.0189 24.4189 79.765 23.7939H82.7826C82.8607 23.96 82.9389 24.1992 83.017 24.5117C83.1049 24.8242 83.1732 25.21 83.2221 25.6689C83.7299 25.0537 84.3207 24.5508 84.9945 24.1602C85.6781 23.7695 86.4154 23.5742 87.2064 23.5742C88.0268 23.5742 88.7445 23.8135 89.3598 24.292C89.975 24.7705 90.4486 25.4297 90.7807 26.2695C91.1225 27.0996 91.2934 28.0518 91.2934 29.126C91.2934 30.376 91.0736 31.4648 90.6342 32.3926C90.1947 33.3105 89.6039 34.0186 88.8617 34.5166C88.1195 35.0146 87.2992 35.2637 86.4008 35.2637C85.8246 35.2637 85.307 35.1758 84.848 35C84.3891 34.834 83.9008 34.5996 83.3832 34.2969V36.6406C83.3832 37.5195 83.4027 38.2422 83.4418 38.8086C83.4906 39.3848 83.5639 39.9072 83.6615 40.376H80.307ZM85.6684 32.7441C86.3422 32.7441 86.933 32.4512 87.4408 31.8652C87.9584 31.2695 88.2172 30.4688 88.2172 29.4629C88.2172 28.4668 88.0316 27.6758 87.6605 27.0898C87.2895 26.4941 86.7719 26.1963 86.1078 26.1963C85.6195 26.1963 85.1215 26.4014 84.6137 26.8115C84.1059 27.2119 83.6957 27.8027 83.3832 28.584V31.7041C83.9496 32.124 84.3793 32.4023 84.6723 32.5391C84.9652 32.6758 85.2973 32.7441 85.6684 32.7441ZM97.9443 35.2637C96.4014 35.2637 95.1367 34.7656 94.1504 33.7695C93.1641 32.7637 92.6709 31.3184 92.6709 29.4336C92.6709 28.1738 92.9199 27.1094 93.418 26.2402C93.9258 25.3711 94.5947 24.7119 95.4248 24.2627C96.2646 23.8037 97.1777 23.5742 98.1641 23.5742C99.7168 23.5742 100.981 24.0771 101.958 25.083C102.944 26.0889 103.438 27.5391 103.438 29.4336C103.438 30.6934 103.184 31.7578 102.676 32.627C102.178 33.4863 101.514 34.1406 100.684 34.5898C99.8535 35.0391 98.9404 35.2637 97.9443 35.2637ZM98.0615 32.8027C98.7646 32.8027 99.3213 32.5049 99.7314 31.9092C100.151 31.3037 100.361 30.4785 100.361 29.4336C100.361 28.3789 100.166 27.5537 99.7754 26.958C99.3848 26.3525 98.8135 26.0498 98.0615 26.0498C97.3486 26.0498 96.7822 26.3525 96.3623 26.958C95.9521 27.5537 95.7471 28.3789 95.7471 29.4336C95.7471 30.4785 95.9424 31.3037 96.333 31.9092C96.7334 32.5049 97.3096 32.8027 98.0615 32.8027ZM110.015 35.2637C109.322 35.2637 108.687 35.1709 108.111 34.9854C107.545 34.7998 107.09 34.4727 106.749 34.0039C106.417 33.5352 106.251 32.8809 106.251 32.041V20.498H109.327V29.9316C109.327 30.7617 109.371 31.377 109.459 31.7773C109.556 32.1777 109.708 32.4414 109.913 32.5684C110.118 32.6855 110.386 32.7441 110.718 32.7441C111.002 32.7441 111.314 32.6758 111.656 32.5391C112.007 32.3926 112.403 32.1875 112.842 31.9238V34.3848C112.315 34.707 111.812 34.9316 111.334 35.0586C110.855 35.1953 110.416 35.2637 110.015 35.2637ZM104.156 26.167V23.9697H112.667V26.167H104.156ZM118.717 35.2637C117.74 35.2637 116.837 35.1416 116.007 34.8975C115.187 34.6436 114.537 34.3506 114.059 34.0186L114.659 31.3232C115.206 31.7725 115.865 32.1338 116.637 32.4072C117.418 32.6709 118.131 32.8027 118.776 32.8027C119.293 32.8027 119.713 32.7051 120.035 32.5098C120.367 32.3047 120.533 32.0752 120.533 31.8213C120.533 31.499 120.362 31.2158 120.021 30.9717C119.689 30.7178 119 30.4785 117.955 30.2539C116.92 30.0293 116.129 29.7607 115.582 29.4482C115.035 29.1357 114.659 28.7793 114.454 28.3789C114.259 27.9785 114.161 27.5488 114.161 27.0898C114.161 26.8262 114.235 26.499 114.381 26.1084C114.528 25.708 114.777 25.3174 115.128 24.9365C115.489 24.5459 115.978 24.2236 116.593 23.9697C117.218 23.7061 117.999 23.5742 118.937 23.5742C119.835 23.5742 120.612 23.6719 121.266 23.8672C121.93 24.0527 122.472 24.248 122.892 24.4531L122.467 27.0459C122.057 26.8213 121.539 26.5918 120.914 26.3574C120.289 26.1133 119.596 25.9912 118.834 25.9912C118.19 25.9912 117.745 26.1035 117.501 26.3281C117.257 26.543 117.135 26.7627 117.135 26.9873C117.135 27.2607 117.257 27.4756 117.501 27.6318C117.755 27.7783 118.365 27.9492 119.332 28.1445C120.094 28.291 120.787 28.4961 121.412 28.7598C122.047 29.0234 122.555 29.3799 122.936 29.8291C123.317 30.2783 123.507 30.8496 123.507 31.543C123.507 32.2461 123.292 32.8809 122.862 33.4473C122.443 34.0039 121.871 34.4482 121.149 34.7803C120.426 35.1025 119.615 35.2637 118.717 35.2637Z" fill="#00286E"/>
<path d="M14.952 32.2637C13.4871 32.2637 12.1883 31.9512 11.0555 31.3262C9.92266 30.6914 9.0291 29.7686 8.37481 28.5576C7.73027 27.3369 7.40801 25.8477 7.40801 24.0898C7.40801 22.332 7.75469 20.8281 8.44805 19.5781C9.15117 18.3281 10.1082 17.3711 11.3191 16.707C12.5301 16.0332 13.8924 15.6963 15.4061 15.6963C16.3436 15.6963 17.2469 15.7939 18.116 15.9893C18.9852 16.1748 19.9275 16.5898 20.9432 17.2344L20.0057 19.8418C19.2342 19.3047 18.4529 18.9189 17.6619 18.6846C16.8807 18.4502 16.0994 18.333 15.3182 18.333C13.8631 18.333 12.701 18.8311 11.8318 19.8271C10.9725 20.8232 10.5428 22.1562 10.5428 23.8262C10.5428 25.6035 10.9383 27.0098 11.7293 28.0449C12.5203 29.0703 13.5652 29.583 14.8641 29.583C15.4988 29.583 16.0701 29.5293 16.5779 29.4219C17.0955 29.3047 17.6717 29.0898 18.3064 28.7773V25.8477H14.8494V23.3867H21.1043V30.3008C19.9227 31.0918 18.8533 31.6191 17.8963 31.8828C16.949 32.1367 15.9676 32.2637 14.952 32.2637ZM28.2533 32.2637C26.7104 32.2637 25.4457 31.7656 24.4594 30.7695C23.473 29.7637 22.9799 28.3184 22.9799 26.4336C22.9799 25.1738 23.2289 24.1094 23.727 23.2402C24.2348 22.3711 24.9037 21.7119 25.7338 21.2627C26.5736 20.8037 27.4867 20.5742 28.473 20.5742C30.0258 20.5742 31.2904 21.0771 32.267 22.083C33.2533 23.0889 33.7465 24.5391 33.7465 26.4336C33.7465 27.6934 33.4926 28.7578 32.9848 29.627C32.4867 30.4863 31.8227 31.1406 30.9926 31.5898C30.1625 32.0391 29.2494 32.2637 28.2533 32.2637ZM28.3705 29.8027C29.0736 29.8027 29.6303 29.5049 30.0404 28.9092C30.4604 28.3037 30.6703 27.4785 30.6703 26.4336C30.6703 25.3789 30.475 24.5537 30.0844 23.958C29.6938 23.3525 29.1225 23.0498 28.3705 23.0498C27.6576 23.0498 27.0912 23.3525 26.6713 23.958C26.2611 24.5537 26.0561 25.3789 26.0561 26.4336C26.0561 27.4785 26.2514 28.3037 26.642 28.9092C27.0424 29.5049 27.6186 29.8027 28.3705 29.8027ZM40.3975 32.2637C38.8545 32.2637 37.5898 31.7656 36.6035 30.7695C35.6172 29.7637 35.124 28.3184 35.124 26.4336C35.124 25.1738 35.373 24.1094 35.8711 23.2402C36.3789 22.3711 37.0479 21.7119 37.8779 21.2627C38.7178 20.8037 39.6309 20.5742 40.6172 20.5742C42.1699 20.5742 43.4346 21.0771 44.4111 22.083C45.3975 23.0889 45.8906 24.5391 45.8906 26.4336C45.8906 27.6934 45.6367 28.7578 45.1289 29.627C44.6309 30.4863 43.9668 31.1406 43.1367 31.5898C42.3066 32.0391 41.3936 32.2637 40.3975 32.2637ZM40.5146 29.8027C41.2178 29.8027 41.7744 29.5049 42.1846 28.9092C42.6045 28.3037 42.8145 27.4785 42.8145 26.4336C42.8145 25.3789 42.6191 24.5537 42.2285 23.958C41.8379 23.3525 41.2666 23.0498 40.5146 23.0498C39.8018 23.0498 39.2354 23.3525 38.8154 23.958C38.4053 24.5537 38.2002 25.3789 38.2002 26.4336C38.2002 27.4785 38.3955 28.3037 38.7861 28.9092C39.1865 29.5049 39.7627 29.8027 40.5146 29.8027ZM51.941 32.2637C50.5836 32.2637 49.485 31.7803 48.6451 30.8135C47.8053 29.8467 47.3854 28.5576 47.3854 26.9463C47.3854 25.6475 47.6246 24.5244 48.1031 23.5771C48.5914 22.6201 49.2408 21.8828 50.0514 21.3652C50.8717 20.8379 51.775 20.5742 52.7613 20.5742C53.191 20.5742 53.65 20.6719 54.1383 20.8672C54.6266 21.0527 55.066 21.2676 55.4566 21.5117V18.4355C55.4566 17.5566 55.4371 16.7852 55.398 16.1211C55.359 15.4473 55.2857 14.8809 55.1783 14.4219H58.5328V26.1846C58.5328 27.5713 58.6109 28.7334 58.7672 29.6709C58.9234 30.6084 59.1188 31.3848 59.3531 32H56.3355C56.2574 31.8242 56.1598 31.5605 56.0426 31.209C55.9254 30.8477 55.8229 30.4717 55.735 30.0811C55.2369 30.7842 54.6705 31.3262 54.0357 31.707C53.401 32.0781 52.7027 32.2637 51.941 32.2637ZM52.5416 29.8027C53.1275 29.8027 53.6939 29.5732 54.2408 29.1143C54.7877 28.6553 55.193 28.1523 55.4566 27.6055V23.8994C54.9488 23.6455 54.4996 23.4697 54.109 23.3721C53.7281 23.2646 53.2789 23.2109 52.7613 23.2109C52.1852 23.2109 51.6578 23.5137 51.1793 24.1191C50.7008 24.7148 50.4615 25.5498 50.4615 26.624C50.4615 28.7432 51.1549 29.8027 52.5416 29.8027Z" fill="#69D2AA"/>
</svg>
