<svg width="182" height="64" viewBox="0 0 182 64" fill="none" xmlns="http://www.w3.org/2000/svg">
<path d="M82.7809 45.376V34.6826C82.7809 33.3154 82.7516 32.1484 82.693 31.1816C82.6441 30.2148 82.4928 29.4189 82.2389 28.7939H85.2564C85.3346 28.96 85.4127 29.1992 85.4908 29.5117C85.5787 29.8242 85.6471 30.21 85.6959 30.6689C86.2037 30.0537 86.7945 29.5508 87.4684 29.1602C88.152 28.7695 88.8893 28.5742 89.6803 28.5742C90.5006 28.5742 91.2184 28.8135 91.8336 29.292C92.4488 29.7705 92.9225 30.4297 93.2545 31.2695C93.5963 32.0996 93.7672 33.0518 93.7672 34.126C93.7672 35.376 93.5475 36.4648 93.108 37.3926C92.6686 38.3105 92.0777 39.0186 91.3355 39.5166C90.5934 40.0146 89.773 40.2637 88.8746 40.2637C88.2984 40.2637 87.7809 40.1758 87.3219 40C86.8629 39.834 86.3746 39.5996 85.857 39.2969V41.6406C85.857 42.5195 85.8766 43.2422 85.9156 43.8086C85.9645 44.3848 86.0377 44.9072 86.1354 45.376H82.7809ZM88.1422 37.7441C88.816 37.7441 89.4068 37.4512 89.9146 36.8652C90.4322 36.2695 90.691 35.4688 90.691 34.4629C90.691 33.4668 90.5055 32.6758 90.1344 32.0898C89.7633 31.4941 89.2457 31.1963 88.5816 31.1963C88.0934 31.1963 87.5953 31.4014 87.0875 31.8115C86.5797 32.2119 86.1695 32.8027 85.857 33.584V36.7041C86.4234 37.124 86.8531 37.4023 87.1461 37.5391C87.4391 37.6758 87.7711 37.7441 88.1422 37.7441ZM100.418 40.2637C98.8752 40.2637 97.6105 39.7656 96.6242 38.7695C95.6379 37.7637 95.1447 36.3184 95.1447 34.4336C95.1447 33.1738 95.3937 32.1094 95.8918 31.2402C96.3996 30.3711 97.0686 29.7119 97.8986 29.2627C98.7385 28.8037 99.6516 28.5742 100.638 28.5742C102.191 28.5742 103.455 29.0771 104.432 30.083C105.418 31.0889 105.911 32.5391 105.911 34.4336C105.911 35.6934 105.657 36.7578 105.15 37.627C104.652 38.4863 103.987 39.1406 103.157 39.5898C102.327 40.0391 101.414 40.2637 100.418 40.2637ZM100.535 37.8027C101.238 37.8027 101.795 37.5049 102.205 36.9092C102.625 36.3037 102.835 35.4785 102.835 34.4336C102.835 33.3789 102.64 32.5537 102.249 31.958C101.859 31.3525 101.287 31.0498 100.535 31.0498C99.8225 31.0498 99.2561 31.3525 98.8361 31.958C98.426 32.5537 98.2209 33.3789 98.2209 34.4336C98.2209 35.4785 98.4162 36.3037 98.8068 36.9092C99.2072 37.5049 99.7834 37.8027 100.535 37.8027ZM112.489 40.2637C111.796 40.2637 111.161 40.1709 110.585 39.9854C110.018 39.7998 109.564 39.4727 109.222 39.0039C108.89 38.5352 108.724 37.8809 108.724 37.041V25.498H111.801V34.9316C111.801 35.7617 111.845 36.377 111.932 36.7773C112.03 37.1777 112.181 37.4414 112.387 37.5684C112.592 37.6855 112.86 37.7441 113.192 37.7441C113.475 37.7441 113.788 37.6758 114.13 37.5391C114.481 37.3926 114.877 37.1875 115.316 36.9238V39.3848C114.789 39.707 114.286 39.9316 113.807 40.0586C113.329 40.1953 112.889 40.2637 112.489 40.2637ZM106.63 31.167V28.9697H115.14V31.167H106.63ZM121.191 40.2637C120.214 40.2637 119.311 40.1416 118.481 39.8975C117.661 39.6436 117.011 39.3506 116.533 39.0186L117.133 36.3232C117.68 36.7725 118.339 37.1338 119.111 37.4072C119.892 37.6709 120.605 37.8027 121.249 37.8027C121.767 37.8027 122.187 37.7051 122.509 37.5098C122.841 37.3047 123.007 37.0752 123.007 36.8213C123.007 36.499 122.836 36.2158 122.495 35.9717C122.162 35.7178 121.474 35.4785 120.429 35.2539C119.394 35.0293 118.603 34.7607 118.056 34.4482C117.509 34.1357 117.133 33.7793 116.928 33.3789C116.733 32.9785 116.635 32.5488 116.635 32.0898C116.635 31.8262 116.708 31.499 116.855 31.1084C117.001 30.708 117.25 30.3174 117.602 29.9365C117.963 29.5459 118.452 29.2236 119.067 28.9697C119.692 28.7061 120.473 28.5742 121.411 28.5742C122.309 28.5742 123.085 28.6719 123.74 28.8672C124.404 29.0527 124.946 29.248 125.366 29.4531L124.941 32.0459C124.531 31.8213 124.013 31.5918 123.388 31.3574C122.763 31.1133 122.07 30.9912 121.308 30.9912C120.663 30.9912 120.219 31.1035 119.975 31.3281C119.731 31.543 119.609 31.7627 119.609 31.9873C119.609 32.2607 119.731 32.4756 119.975 32.6318C120.229 32.7783 120.839 32.9492 121.806 33.1445C122.568 33.291 123.261 33.4961 123.886 33.7598C124.521 34.0234 125.029 34.3799 125.41 34.8291C125.79 35.2783 125.981 35.8496 125.981 36.543C125.981 37.2461 125.766 37.8809 125.336 38.4473C124.916 39.0039 124.345 39.4482 123.622 39.7803C122.9 40.1025 122.089 40.2637 121.191 40.2637Z" fill="#00286E"/>
<ellipse cx="71.8549" cy="30.4683" rx="12.1977" ry="12.293" fill="#00286E"/>
<path d="M71.8549 56L60.6413 35.291H83.0685L71.8549 56Z" fill="#00286E"/>
<path d="M71.7656 40.2637C70.6133 40.2637 69.5391 40.127 68.543 39.8535C67.5566 39.5801 66.7607 39.2285 66.1553 38.7988L66.7119 35.7812C67.4932 36.4062 68.3086 36.8652 69.1582 37.1582C70.0078 37.4414 70.877 37.583 71.7656 37.583C72.4785 37.583 73.1133 37.3926 73.6699 37.0117C74.2363 36.6309 74.5195 36.0889 74.5195 35.3857C74.5195 35.0732 74.4268 34.7852 74.2412 34.5215C74.0654 34.2578 73.709 33.9893 73.1719 33.7158C72.6348 33.4424 71.834 33.1396 70.7695 32.8076C69.627 32.4463 68.7529 32.0459 68.1475 31.6064C67.5518 31.167 67.1416 30.6787 66.917 30.1416C66.7021 29.6045 66.5947 29.0088 66.5947 28.3545C66.5947 27.7002 66.7852 27.0117 67.166 26.2891C67.5566 25.5664 68.1621 24.9561 68.9824 24.458C69.8125 23.9502 70.8867 23.6963 72.2051 23.6963C73.1328 23.6963 73.9629 23.7744 74.6953 23.9307C75.4375 24.0869 76.1992 24.3359 76.9805 24.6777L76.4824 27.5928C75.623 27.1631 74.8711 26.8457 74.2266 26.6406C73.582 26.4355 72.8691 26.333 72.0879 26.333C71.4043 26.333 70.8428 26.5234 70.4033 26.9043C69.9639 27.2754 69.7441 27.6855 69.7441 28.1348C69.7441 28.4473 69.8271 28.7207 69.9932 28.9551C70.1592 29.1895 70.4863 29.4238 70.9746 29.6582C71.4727 29.8828 72.2002 30.1465 73.1572 30.4492C74.6221 30.8984 75.7402 31.4795 76.5117 32.1924C77.2832 32.9053 77.6689 33.8428 77.6689 35.0049C77.6689 36.0596 77.4004 36.9824 76.8633 37.7734C76.3359 38.5547 75.623 39.165 74.7246 39.6045C73.8359 40.0439 72.8496 40.2637 71.7656 40.2637Z" fill="#69D2AA"/>
<path d="M14.952 40.2637C13.4871 40.2637 12.1883 39.9512 11.0555 39.3262C9.92266 38.6914 9.0291 37.7686 8.37481 36.5576C7.73027 35.3369 7.40801 33.8477 7.40801 32.0898C7.40801 30.332 7.75469 28.8281 8.44805 27.5781C9.15117 26.3281 10.1082 25.3711 11.3191 24.707C12.5301 24.0332 13.8924 23.6963 15.4061 23.6963C16.3436 23.6963 17.2469 23.7939 18.116 23.9893C18.9852 24.1748 19.9275 24.5898 20.9432 25.2344L20.0057 27.8418C19.2342 27.3047 18.4529 26.9189 17.6619 26.6846C16.8807 26.4502 16.0994 26.333 15.3182 26.333C13.8631 26.333 12.701 26.8311 11.8318 27.8271C10.9725 28.8232 10.5428 30.1562 10.5428 31.8262C10.5428 33.6035 10.9383 35.0098 11.7293 36.0449C12.5203 37.0703 13.5652 37.583 14.8641 37.583C15.4988 37.583 16.0701 37.5293 16.5779 37.4219C17.0955 37.3047 17.6717 37.0898 18.3064 36.7773V33.8477H14.8494V31.3867H21.1043V38.3008C19.9227 39.0918 18.8533 39.6191 17.8963 39.8828C16.949 40.1367 15.9676 40.2637 14.952 40.2637ZM28.2533 40.2637C26.7104 40.2637 25.4457 39.7656 24.4594 38.7695C23.473 37.7637 22.9799 36.3184 22.9799 34.4336C22.9799 33.1738 23.2289 32.1094 23.727 31.2402C24.2348 30.3711 24.9037 29.7119 25.7338 29.2627C26.5736 28.8037 27.4867 28.5742 28.473 28.5742C30.0258 28.5742 31.2904 29.0771 32.267 30.083C33.2533 31.0889 33.7465 32.5391 33.7465 34.4336C33.7465 35.6934 33.4926 36.7578 32.9848 37.627C32.4867 38.4863 31.8227 39.1406 30.9926 39.5898C30.1625 40.0391 29.2494 40.2637 28.2533 40.2637ZM28.3705 37.8027C29.0736 37.8027 29.6303 37.5049 30.0404 36.9092C30.4604 36.3037 30.6703 35.4785 30.6703 34.4336C30.6703 33.3789 30.475 32.5537 30.0844 31.958C29.6938 31.3525 29.1225 31.0498 28.3705 31.0498C27.6576 31.0498 27.0912 31.3525 26.6713 31.958C26.2611 32.5537 26.0561 33.3789 26.0561 34.4336C26.0561 35.4785 26.2514 36.3037 26.642 36.9092C27.0424 37.5049 27.6186 37.8027 28.3705 37.8027ZM40.3975 40.2637C38.8545 40.2637 37.5898 39.7656 36.6035 38.7695C35.6172 37.7637 35.124 36.3184 35.124 34.4336C35.124 33.1738 35.373 32.1094 35.8711 31.2402C36.3789 30.3711 37.0479 29.7119 37.8779 29.2627C38.7178 28.8037 39.6309 28.5742 40.6172 28.5742C42.1699 28.5742 43.4346 29.0771 44.4111 30.083C45.3975 31.0889 45.8906 32.5391 45.8906 34.4336C45.8906 35.6934 45.6367 36.7578 45.1289 37.627C44.6309 38.4863 43.9668 39.1406 43.1367 39.5898C42.3066 40.0391 41.3936 40.2637 40.3975 40.2637ZM40.5146 37.8027C41.2178 37.8027 41.7744 37.5049 42.1846 36.9092C42.6045 36.3037 42.8145 35.4785 42.8145 34.4336C42.8145 33.3789 42.6191 32.5537 42.2285 31.958C41.8379 31.3525 41.2666 31.0498 40.5146 31.0498C39.8018 31.0498 39.2354 31.3525 38.8154 31.958C38.4053 32.5537 38.2002 33.3789 38.2002 34.4336C38.2002 35.4785 38.3955 36.3037 38.7861 36.9092C39.1865 37.5049 39.7627 37.8027 40.5146 37.8027ZM51.941 40.2637C50.5836 40.2637 49.485 39.7803 48.6451 38.8135C47.8053 37.8467 47.3854 36.5576 47.3854 34.9463C47.3854 33.6475 47.6246 32.5244 48.1031 31.5771C48.5914 30.6201 49.2408 29.8828 50.0514 29.3652C50.8717 28.8379 51.775 28.5742 52.7613 28.5742C53.191 28.5742 53.65 28.6719 54.1383 28.8672C54.6266 29.0527 55.066 29.2676 55.4566 29.5117V26.4355C55.4566 25.5566 55.4371 24.7852 55.398 24.1211C55.359 23.4473 55.2857 22.8809 55.1783 22.4219H58.5328V34.1846C58.5328 35.5713 58.6109 36.7334 58.7672 37.6709C58.9234 38.6084 59.1188 39.3848 59.3531 40H56.3355C56.2574 39.8242 56.1598 39.5605 56.0426 39.209C55.9254 38.8477 55.8229 38.4717 55.735 38.0811C55.2369 38.7842 54.6705 39.3262 54.0357 39.707C53.401 40.0781 52.7027 40.2637 51.941 40.2637ZM52.5416 37.8027C53.1275 37.8027 53.6939 37.5732 54.2408 37.1143C54.7877 36.6553 55.193 36.1523 55.4566 35.6055V31.8994C54.9488 31.6455 54.4996 31.4697 54.109 31.3721C53.7281 31.2646 53.2789 31.2109 52.7613 31.2109C52.1852 31.2109 51.6578 31.5137 51.1793 32.1191C50.7008 32.7148 50.4615 33.5498 50.4615 34.624C50.4615 36.7432 51.1549 37.8027 52.5416 37.8027Z" fill="#00286E"/>
</svg>
