<svg xmlns="http://www.w3.org/2000/svg" xmlns:xlink="http://www.w3.org/1999/xlink" viewBox="0 0 1029.56 878"><defs><style>.cls-1{fill:#69d2aa;}.cls-10,.cls-2{fill:#fff;}.cls-2{fill-opacity:0.4;}.cls-3{fill:#c4c4c4;}.cls-20,.cls-21,.cls-22,.cls-23,.cls-24,.cls-4,.cls-5,.cls-6{fill:none;}.cls-21,.cls-22,.cls-23,.cls-4,.cls-5,.cls-6{stroke:#fff;}.cls-4{stroke-width:1.52px;}.cls-5{stroke-width:2px;}.cls-6{stroke-width:1.54px;}.cls-7{fill:#bcc886;}.cls-11,.cls-13,.cls-15,.cls-16,.cls-17,.cls-18,.cls-19,.cls-27,.cls-32,.cls-7,.cls-9{fill-rule:evenodd;}.cls-16,.cls-8{fill:#783d37;}.cls-9{fill:#cae298;}.cls-11{fill:#4bc7e9;}.cls-12{fill:#3f866c;}.cls-13{fill:#fbffff;}.cls-14{fill:url(#linear-gradient);}.cls-15{fill:#ffddd1;}.cls-17{fill:#f94d5d;}.cls-18{fill:#ef2d35;}.cls-19{fill:#fec2a7;}.cls-20,.cls-24{stroke:#783d37;stroke-linecap:round;}.cls-21,.cls-24{stroke-width:0.89px;}.cls-22{stroke-width:0.64px;}.cls-23{stroke-width:1.05px;}.cls-25{fill:url(#linear-gradient-2);}.cls-26{fill:url(#linear-gradient-3);}.cls-27{fill:#6ad6f3;}.cls-28{fill:#bbbfc3;}.cls-29{fill:#a7afb6;}.cls-30{fill:url(#linear-gradient-4);}.cls-31{fill:#00286e;}.cls-32{fill:#00738e;}</style><linearGradient id="linear-gradient" x1="485.54" y1="637.93" x2="531.05" y2="584.83" gradientTransform="matrix(1, 0, 0, -1, 0, 1060)" gradientUnits="userSpaceOnUse"><stop offset="0" stop-color="#ffddd1"/><stop offset="1" stop-color="#fec2a7"/></linearGradient><linearGradient id="linear-gradient-2" x1="611.76" y1="603.4" x2="652.62" y2="543.14" xlink:href="#linear-gradient"/><linearGradient id="linear-gradient-3" x1="362.77" y1="537.66" x2="447.61" y2="431.42" xlink:href="#linear-gradient"/><linearGradient id="linear-gradient-4" x1="293.88" y1="557.14" x2="314.88" y2="431.38" xlink:href="#linear-gradient"/></defs><g id="Layer_2" data-name="Layer 2"><g id="_03" data-name="03"><path class="cls-1" d="M509.85,878C266.43,874.37,72,675,75.61,432.52S279.44-3.53,522.86.05s437.83,203,434.24,445.43S753.26,881.53,509.85,878Z"/><path class="cls-2" d="M219.43,366a26.22,26.22,0,1,1,26.71-25.83A26.26,26.26,0,0,1,219.43,366Z"/><path class="cls-2" d="M439.47,102.31a34.49,34.49,0,1,1,35.14-34A34.55,34.55,0,0,1,439.47,102.31Z"/><path class="cls-2" d="M753.82,236.6a26.53,26.53,0,1,1,27-26.14A26.58,26.58,0,0,1,753.82,236.6Z"/><path class="cls-2" d="M842.32,541a34.49,34.49,0,1,1,35.14-34A34.56,34.56,0,0,1,842.32,541Z"/><path class="cls-2" d="M214.82,600.78a34.49,34.49,0,1,1,35.14-34A34.56,34.56,0,0,1,214.82,600.78Z"/><path class="cls-2" d="M385.8,324.18a15.68,15.68,0,1,1,16-15.44A15.72,15.72,0,0,1,385.8,324.18Z"/><ellipse class="cls-2" cx="653.83" cy="86.65" rx="15.74" ry="15.68"/><ellipse class="cls-3" cx="769.73" cy="552.49" rx="15.74" ry="15.68"/><path class="cls-2" d="M106.81,451.8a15.68,15.68,0,1,1,16-15.45A15.7,15.7,0,0,1,106.81,451.8Z"/><ellipse class="cls-2" cx="849.51" cy="268.28" rx="15.74" ry="15.68"/><ellipse class="cls-4" cx="227.07" cy="335.15" rx="23.93" ry="23.83"/><ellipse class="cls-5" cx="852.32" cy="503.52" rx="31.48" ry="31.36"/><ellipse class="cls-5" cx="227.97" cy="563.34" rx="31.48" ry="31.36"/><ellipse class="cls-6" cx="763.94" cy="207.8" rx="24.22" ry="24.12"/><ellipse class="cls-5" cx="455.86" cy="58.65" rx="31.48" ry="31.36"/><path class="cls-7" d="M26.54,600.82c-14.3,33.13,61.92,57.62,97.39,60.29l32.29-26.81C120.2,606.45,43.84,560.76,26.54,600.82Z"/><path class="cls-8" d="M141.7,645.36l1.47.56.56-1.47-1.47-.56Zm-3.14-1.19.56-1.47-1.48-.56-.56,1.47Zm2,4.12-.56,1.46,1.47.56.56-1.46Zm-3.14-1.19-1.48-.56-.55,1.47,1.47.55ZM60.07,617.79l-1.47-.56L58,618.7l1.47.56Zm17.3,6.55-.56,1.47,1.47.55.56-1.46Zm-16.18-9.48.56-1.47-1.47-.55-.56,1.46Zm17.3,6.55L80,622l.56-1.47L79.05,620ZM125.86,640l.5,1.49,1.49-.5-.49-1.48Zm-14.18-24.41,1.11-1.11-1.12-1.1-1.11,1.11ZM122.87,641l-1.49.49.49,1.49,1.5-.49ZM109.46,617.8l-1.12-1.1-1.11,1.11,1.12,1.1ZM124.93,639l1.47.56.56-1.47-1.47-.55Zm-15.31-5.79.56-1.47-1.47-.56-.56,1.47Zm14.19,8.73-.56,1.46,1.47.56.56-1.47Zm-15.31-5.8-1.47-.56-.56,1.46,1.47.56Zm15.31,5.8-1.47-.56-.56,1.46,1.47.56Zm13.63,5.16-.56,1.46,1.47.56.56-1.46ZM124.93,639l.56-1.46L124,637l-.56,1.47Zm13.63,5.17,1.47.55.56-1.46-1.47-.56Zm-30.63-10.59,1.09-1.13-1.13-1.08-1.09,1.12Zm-18.16,7.87-.08-1.56-1.58.08.08,1.56Zm20.43-5.69,1.13,1.09,1.09-1.13-1.13-1.09Zm-20.27,8.83-1.57.08.08,1.56,1.57-.08Zm19.69-11.38,1.47.55.56-1.46-1.47-.56ZM95.78,628l.56-1.46-1.47-.56-.56,1.47Zm12.72,8.18-.56,1.46,1.47.56.56-1.47ZM94.66,630.9l-1.47-.56-.56,1.46,1.47.56Zm2.08-1.9.43,1.51,1.51-.44-.43-1.5Zm-4.17-10.88,1.42-.67h0Zm1.14,11.74-1.51.43.43,1.51,1.51-.43Zm-4-10.38-1.42.68h0Zm-6.49-9.33-1.24-1-1,1.24,1.24,1Zm1.94-2.47,1-1.23-1.24-1-1,1.23ZM95.78,628l1.47.56.56-1.46-1.47-.56Zm-17.29-6.55.56-1.46-1.48-.56L77,620.85Zm16.17,9.49-.56,1.46,1.48.56.56-1.47Zm-17.29-6.56-1.48-.56-.55,1.47,1.47.56Zm-.49-2.63,1.17-1.05-1-1.17-1.17,1Zm-13.58,6.6L63,626.77l-1.56.26.27,1.54ZM79,624.05l1,1.16,1.18-1-1-1.17Zm-15.16,7.36-1.55.26.26,1.54,1.55-.26Zm73.17,13,1.21-1-1-1.2-1.21,1Zm-18,5.47-.07-1.57-1.57.07.06,1.56Zm20-3.06,1,1.2,1.21-1-1-1.21ZM119.13,653l-1.57.07.06,1.56,1.58-.06Zm23.13-9.14-3.14-1.19L138,645.63l3.14,1.19Zm-.21,5,1.12-2.93-2.94-1.12-1.12,2.93Zm-5.17-.29,3.14,1.19,1.12-2.93L138,645.63Zm.2-4.95L136,646.54l2.95,1.12,1.12-2.94ZM59.51,619.26l17.3,6.55,1.12-2.93-17.3-6.56Zm.21-5-1.12,2.93,2.94,1.12,1.12-2.93ZM79.05,620l-17.3-6.56-1.12,2.93,17.3,6.56Zm-.21,4.95L80,622,77,620.85l-1.12,2.93Zm48.52,14.59c-1.72-5.19-7-17.57-14.57-25l-2.22,2.23c7,6.94,12.13,18.74,13.8,23.78Zm-4,3,3-1-1-3-3,1Zm-15-23.54c6.5,6.42,11.41,17.66,13,22.54l3-1c-1.67-5-6.77-16.84-13.8-23.78Zm2.21-4.44-2.22,2.23,2.24,2.2,2.22-2.22Zm14.93,23.07-15.31-5.8-1.12,2.93,15.31,5.8Zm-.21,5,1.12-2.93-2.94-1.11-1.12,2.93Zm-17.34-4.89,15.31,5.8,1.12-2.93-15.31-5.8Zm.21-5L107,635.58l2.94,1.11,1.12-2.93Zm15.1,10.75,13.63,5.16,1.12-2.93-13.63-5.16Zm.21-4.95-1.12,2.93,2.94,1.11,1.12-2.93Zm15.66,4.25-13.63-5.16-1.12,2.93L138,645.63Zm-.21,5,1.12-2.94-2.95-1.11L136,646.54ZM106.8,632.49a28,28,0,0,1-17.11,7.4l.16,3.13a31.1,31.1,0,0,0,19.21-8.35Zm4.49,2.14L109,632.45l-2.18,2.26,2.26,2.18ZM90,646.15a34.2,34.2,0,0,0,21.32-9.3l-2.27-2.18A31.1,31.1,0,0,1,89.85,643Zm-1.82-4.62.17,3.14,3.14-.17-.16-3.13Zm22-9.79L96.34,626.5l-1.12,2.93,13.84,5.24Zm-.21,5,1.12-2.93-2.94-1.11L107,635.58ZM94.1,632.36l13.84,5.24,1.12-2.93-13.84-5.24Zm.21-5-1.12,2.93,3,1.11,1.11-2.93Zm3.94,1.16A74.9,74.9,0,0,0,94,617.45l-2.84,1.35a71.41,71.41,0,0,1,4.07,10.63Zm-4.11,2.8,3-.86-.87-3-3,.86Zm-5.83-11.21a70.39,70.39,0,0,1,3.89,10.13l3-.86a71.41,71.41,0,0,0-4.07-10.63Zm-6-8.78c2,1.59,4.16,4.87,6,8.78l2.84-1.36c-1.91-4-4.3-7.82-6.94-9.89Zm1.67-4.67L82,609.18l2.48,1.94,1.94-2.47Zm10,10.74c-1.94-4-4.59-8.46-7.84-11l-1.94,2.46c2.64,2.07,5,5.92,6.94,9.89Zm2.35,9L79.05,620l-1.12,2.93,17.29,6.55Zm-.2,5,1.11-2.93-2.94-1.11-1.12,2.93Zm-19.33-5.64,17.29,6.55,1.12-2.93-17.29-6.55Zm.2-5-1.12,2.93,3,1.12L80,622Zm-1.18-.31A29.26,29.26,0,0,1,63,626.77l.52,3.09a32.25,32.25,0,0,0,14.37-7ZM80.15,623l-2.1-2.34-2.35,2.09,2.1,2.34ZM64.08,633A35.26,35.26,0,0,0,80,625.21l-2.09-2.33a32.25,32.25,0,0,1-14.37,7Zm-2.33-4.38.52,3.1,3.1-.52-.52-3.1ZM136,643.22c-1.55,1.29-7.64,4.72-17,5.11l.13,3.14c10-.42,16.81-4.07,18.94-5.84Zm4.23,2.61-2-2.41-2.42,2,2,2.41Zm-21,8.77c10.66-.45,18.1-4.31,20.81-6.56l-2-2.41c-2.13,1.77-8.9,5.42-18.94,5.84ZM117.42,650l.14,3.14,3.14-.14-.13-3.13Z"/><path class="cls-7" d="M1026.63,600.82c14.3,33.13-61.92,57.62-97.39,60.29L897,634.3C933,606.45,1009.34,560.76,1026.63,600.82Z"/><path class="cls-8" d="M911.47,645.36l-.56-1.47-1.47.56.56,1.47Zm3.15-1.19,1.47-.56-.56-1.47-1.47.56Zm-2,4.12-1.47.56.56,1.46,1.47-.56Zm3.15-1.19.55,1.46,1.48-.55-.56-1.47Zm77.36-29.31.56,1.47,1.48-.56-.56-1.47Zm-17.3,6.55-1.47.56.56,1.46,1.47-.55ZM992,614.86l1.47-.56-.55-1.46-1.48.55Zm-17.29,6.55-.56-1.46-1.47.55.56,1.47ZM927.31,640l-1.49-.49-.5,1.48,1.5.5Zm14.18-24.41,1.12-1.1-1.11-1.11-1.11,1.1ZM930.3,641l-.5,1.49,1.5.49.49-1.49Zm13.41-23.16,1.11,1.11,1.12-1.1-1.11-1.11ZM928.25,639l-.56-1.46-1.48.55.56,1.47Zm15.3-5.79,1.47-.56-.56-1.47-1.47.56Zm-14.19,8.73-1.47.55.56,1.47,1.47-.56Zm15.31-5.8.56,1.46,1.47-.56-.56-1.46Zm-15.31,5.8.56,1.46,1.47-.56-.56-1.46Zm-13.62,5.16-1.48.56.56,1.46,1.47-.56Zm12.51-8.1,1.47-.55-.56-1.47-1.47.56Zm-13.63,5.17-.56-1.47-1.47.56.56,1.46Zm30.62-10.59,1.14-1.09-1.09-1.12-1.14,1.08Zm18.17,7.87,1.57.08.08-1.56-1.57-.08ZM943,635.76l-1.09-1.13-1.14,1.09,1.09,1.13Zm20.26,8.83-.08,1.56,1.57.08.09-1.56Zm-19.69-11.38-.56-1.47-1.47.56.56,1.46ZM957.39,628l1.47-.55-.56-1.47-1.47.56Zm-12.72,8.18-1.47.55.56,1.47,1.47-.56Zm13.84-5.24.56,1.46,1.47-.56-.56-1.46Zm-2.08-1.9-1.51-.43-.43,1.5,1.51.44Zm4.17-10.88-1.42-.67h0Zm-1.14,11.74-.43,1.51,1.51.43.43-1.51Zm4-10.38,1.42.68h0Zm6.49-9.33,1,1.23,1.25-1-1-1.24ZM968,607.68l1.24-1-1-1.23-1.24,1ZM957.39,628l-.56-1.46-1.47.56.56,1.46Zm17.3-6.55,1.47-.56-.56-1.46-1.47.56Zm-16.18,9.49-1.47.55.56,1.47,1.47-.56Zm17.29-6.56.56,1.47,1.48-.56-.56-1.47Zm.5-2.63,1-1.17-1.17-1-1,1.17Zm13.57,6.6,1.56.26.26-1.54-1.55-.26Zm-15.68-4.26L973,623l-1,1.17,1.18,1Zm15.16,7.36-.26,1.54,1.55.26.26-1.54Zm-73.17,13,1-1.21-1.21-1-1,1.2Zm18,5.47,1.58.06.06-1.56-1.57-.07Zm-20-3.06-1.21-1L912,647l1.21,1ZM934,653,934,654.6l1.57.06.07-1.56Zm-22-6.21,3.15-1.19-1.12-2.93-3.15,1.19Zm2,.91-1.12-2.93L910,645.92l1.12,2.93Zm1.12-2.1L912,646.82l1.12,2.93,3.14-1.19Zm-2-.91,1.11,2.94,3-1.12-1.12-2.93Zm79.39-28.4-17.29,6.56,1.11,2.93,17.3-6.55Zm-2-.9,1.12,2.93,3-1.12-1.13-2.93Zm-15.26,7.46,17.29-6.56-1.12-2.93L974.13,620Zm2,.9-1.12-2.93L973.22,622l1.11,2.93ZM928.8,640.47c1.67-5,6.77-16.84,13.8-23.78l-2.21-2.23c-7.57,7.46-12.86,19.84-14.57,25Zm2-1-3-1-1,3,3,1Zm11.81-22.78c-7,6.94-12.13,18.74-13.8,23.78l3,1c1.62-4.88,6.53-16.12,13-22.54Zm-2.22,0,2.21,2.22,2.24-2.2-2.22-2.23ZM928.8,640.47l15.31-5.8L943,631.74l-15.3,5.8Zm2,.91-1.11-2.93-3,1.11,1.12,2.93Zm13.28-6.71-15.31,5.8,1.12,2.93,15.31-5.8Zm-2-.91,1.12,2.93,2.94-1.11L945,632.65Zm-13.28,6.71-13.62,5.16,1.11,2.93,13.63-5.16Zm-2-.91,1.12,2.93,2.94-1.11-1.11-2.93Zm-11.59,6.07,13.62-5.16-1.11-2.93-13.63,5.16Zm2,.91-1.12-2.93-2.94,1.11,1.11,2.94Zm26.9-11.87A31.1,31.1,0,0,0,963.32,643l.17-3.13a28,28,0,0,1-17.11-7.4Zm0,2.22,2.27-2.18-2.19-2.26-2.26,2.18ZM963.32,643a31.1,31.1,0,0,1-19.21-8.35l-2.27,2.18a34.23,34.23,0,0,0,21.32,9.3Zm-1.49-1.65-.16,3.13,3.15.17.16-3.14Zm-17.72-6.7L958,629.43l-1.12-2.93L943,631.74Zm2,.91L945,632.65l-2.94,1.11,1.12,2.93ZM958,629.43l-13.84,5.24,1.12,2.93,13.84-5.24Zm-2-.91,1.12,2.93,2.94-1.11-1.12-2.93Zm2,.91A71.41,71.41,0,0,1,962,618.8l-2.84-1.35a76,76,0,0,0-4.26,11.12Zm1.94-1.08-3-.86-.87,3,3,.86ZM962,618.8A71.41,71.41,0,0,0,958,629.43l3,.86a70.39,70.39,0,0,1,3.89-10.13Zm7-9.89c-2.65,2.07-5,5.92-7,9.89l2.84,1.36c1.88-3.91,4-7.19,6-8.78Zm-2.21-.26,1.93,2.47,2.48-1.94-1.94-2.47ZM962,618.8c1.91-4,4.3-7.82,7-9.89l-2-2.46c-3.25,2.54-5.89,7-7.84,11ZM958,629.43l17.3-6.55L974.13,620l-17.3,6.55Zm2,.91-1.12-2.93-2.94,1.11,1.12,2.93Zm15.27-7.46L958,629.43l1.12,2.93,17.29-6.55Zm-2-.91,1.11,2.93,2.95-1.12-1.12-2.93Zm2,.91a32.2,32.2,0,0,0,14.36,7l.53-3.09a29.25,29.25,0,0,1-12.8-6.23Zm.12,2.21,2.1-2.34-2.35-2.09L973,623Zm14.24,4.77a32.2,32.2,0,0,1-14.36-7l-2.1,2.33A35.26,35.26,0,0,0,989.09,633Zm-1.29-1.81-.52,3.1,3.1.52.53-3.1Zm-73.14,17.58c2.12,1.77,8.9,5.42,18.93,5.84l.13-3.14c-9.4-.39-15.5-3.82-17-5.11Zm.2,2.21,2-2.41-2.42-2-2,2.41Zm18.73,3.63c-10-.42-16.81-4.07-18.93-5.84l-2,2.41c2.71,2.25,10.16,6.11,20.82,6.56Zm-1.51-1.64-.13,3.13,3.15.14.13-3.14Z"/><path class="cls-9" d="M42.5,434.3c-67.69,34.22,22,175.6,75.57,227.33h88.16C185.76,568.61,124.37,392.9,42.5,434.3Z"/><path class="cls-10" d="M167.19,660.43l1.21,2.14,2.14-1.2-1.2-2.14Zm-3.45-6.12,2.14-1.2L164.67,651l-2.14,1.2Zm-.83,8.53-2.15,1.2,1.21,2.13,2.14-1.2Zm-3.46-6.13-1.21-2.13-2.14,1.2,1.2,2.13ZM74.35,506.05l-1.2-2.14L71,505.12l1.21,2.13Zm19,33.68-2.14,1.21,1.2,2.13,2.15-1.2ZM78.64,503.65l2.15-1.2-1.21-2.14-2.14,1.2Zm19,33.68,1.2,2.14,2.15-1.2-1.21-2.14Zm51.22,92.54-.9,2.28,2.28.9.91-2.28Zm10-57.89,2.45-.23-.23-2.43-2.45.23Zm-14.58,56.09-2.28-.9-.91,2.28,2.29.9ZM154,572.45l-.23-2.44-2.45.23.23,2.44Zm-5.24,55.32,1.2,2.13,2.15-1.2-1.21-2.13ZM131.91,598l2.15-1.2-1.21-2.13-2.14,1.2Zm12.55,32.21-2.15,1.2,1.21,2.14,2.14-1.2Zm-16.84-29.8-1.2-2.14-2.15,1.2,1.21,2.14Zm16.84,29.8L143.25,628l-2.14,1.2,1.2,2.13Zm15,26.54-2.15,1.2,1.21,2.14,2.14-1.2Zm-10.7-28.94,2.14-1.2-1.21-2.14-2.14,1.2Zm15,26.54,1.2,2.14,2.14-1.21-1.2-2.13ZM129.5,596.73l2.45-.26-.27-2.44-2.45.27ZM89,585l1.48-2-2-1.47-1.47,2Zm41,16.64.27,2.43,2.45-.26-.27-2.43ZM86.09,588.88l-2-1.47-1.47,2,2,1.47ZM131.91,598l1.21,2.14,2.14-1.2-1.2-2.14ZM116.69,571l2.15-1.21-1.21-2.13-2.14,1.2Zm10.93,29.35-2.14,1.2,1.21,2.13,2.14-1.2Zm-15.22-27-1.2-2.14-2.15,1.2,1.21,2.14Zm4.4-.21-1,2.24,2.25,1,1-2.24Zm7.9-23,2.38.6h0Zm-12.4,21-2.25-1-1,2.24,2.25,1Zm7.63-22.18-2.38-.6h0ZM122.06,525l-.52-2.39-2.4.51.51,2.39Zm4.81-1,2.4-.51-.51-2.39-2.41.51ZM116.69,571l1.21,2.13L120,572l-1.2-2.14Zm-19-33.69,2.14-1.2L98.61,534l-2.15,1.2Zm14.73,36.09-2.14,1.2,1.21,2.13,2.14-1.2Zm-19-33.69-1.21-2.13L90,538.8l1.21,2.14Zm2.06-3.65L97.9,536l-.09-2.45-2.46.09Zm-31.23-7.62,1.24-2.12-2.13-1.23-1.24,2.11ZM95.61,541l.08,2.45,2.46-.08-.08-2.45Zm-33.88-8.29-2.12-1.24-1.24,2.12,2.12,1.23Zm99.86,120.37h2.46v-2.45h-2.46Zm-36.86-15.42,1.49-1.94-2-1.49-1.5,1.94ZM161.59,658v2.45h2.46V658Zm-39.85-16.43-1.95-1.48-1.5,1.94,2,1.49Zm47.6,17.7-3.46-6.12-4.29,2.4,3.46,6.12ZM164.11,665l4.29-2.4L166,658.3l-4.29,2.4Zm-6.81-7.06,3.46,6.13,4.29-2.41-3.46-6.12Zm5.23-5.74-4.29,2.41,2.41,4.27,4.29-2.4ZM72.21,507.25l19,33.69,4.28-2.41-19-33.68Zm5.23-5.74-4.29,2.4,2.41,4.28,4.29-2.41Zm22.37,34.62-19-33.68-4.29,2.4,19,33.68Zm-5.22,5.74,4.28-2.4-2.41-4.27-4.29,2.4Zm56.59,88.9c4.19-10.58,12.24-37.28,10.16-59l-4.9.47c2,20.58-5.74,46.41-9.84,56.75Zm-7.77-.42,4.58,1.8,1.8-4.56-4.57-1.8Zm8.13-57.67c1.86,19.42-5.51,44.38-9.51,54.49l4.57,1.8c4.1-10.34,11.81-36.17,9.84-56.75Zm7.12-3.13-4.9.46.47,4.88,4.89-.47Zm-7.77,57-16.83-29.81-4.29,2.41L146.6,629Zm-5.23,5.74L150,629.9l-2.41-4.27L143.25,628Zm-20.18-30.74,16.83,29.8,4.29-2.4-16.83-29.8Zm5.23-5.74-4.29,2.4,2.41,4.27,4.29-2.4Zm11.6,35.54,15,26.54,4.29-2.4L146.6,629Zm5.23-5.74L143.25,628l2.41,4.27L150,629.9Zm18.34,27.48-15-26.54L146.6,629l15,26.54Zm-5.23,5.74,4.29-2.4-2.41-4.28-4.29,2.41ZM129.23,594.3c-6.62.72-24.22-.48-38.71-11.3l-3,3.92c15.74,11.76,34.69,13.06,42.2,12.25Zm3.25,7-.53-4.87-4.89.53.53,4.87Zm-47.86-10.5c17,12.69,37.29,14.11,45.68,13.19l-.53-4.86c-7.51.81-26.46-.49-42.2-12.25Zm2.46-7.35-3,3.92,3.94,2.94,3-3.92Zm47,13.27-15.22-27-4.29,2.41,15.22,26.95Zm-5.23,5.74,4.29-2.4-2.41-4.27-4.29,2.4Zm-18.57-27.88,15.22,27,4.29-2.4-15.22-26.95Zm5.23-5.74-4.29,2.4,2.41,4.27,4.29-2.4Zm3.56,5.32a156.83,156.83,0,0,0,8-23.35l-4.77-1.2a151.07,151.07,0,0,1-7.76,22.57Zm-7.75-.73,4.5,2,2-4.48-4.5-2Zm6.25-25a147.9,147.9,0,0,1-7.5,21.79l4.5,2a151.07,151.07,0,0,0,7.76-22.57Zm2.1-23c1.23,5.68.15,14.13-2.1,23l4.76,1.2c2.28-8.95,3.63-18.34,2.15-25.2Zm6.7-3.93-4.81,1,1,4.79,4.81-1Zm.73,29.31c2.31-9.06,3.92-19.39,2.19-27.43l-4.81,1c1.48,6.86.13,16.25-2.15,25.2Zm-8.24,19-19-33.68-4.29,2.4,19,33.69Zm-5.23,5.74,4.29-2.4-2.41-4.27-4.29,2.4ZM91.24,540.94l19,33.68,4.29-2.4-19-33.69Zm5.22-5.74-4.29,2.4,2.42,4.27,4.28-2.4Zm-1.11-1.56c-5.39.18-19.18-1.07-29.9-7.3L63,530.57c11.81,6.86,26.62,8.17,32.55,8Zm2.72,7.26L97.9,536l-4.92.17.17,4.9Zm-37.58-6.1c12.89,7.49,28.74,8.85,35.2,8.63l-.17-4.9c-5.93.21-20.74-1.1-32.55-8Zm1.59-7.58-2.47,4.23,4.25,2.47,2.47-4.23Zm99.51,123.39c-4.64,0-19.42-2.77-35.37-14.91l-3,3.89c16.73,12.73,32.54,15.92,38.36,15.92Zm2.46,7.35v-4.9h-4.92V658Zm-43.8-14.48c17.5,13.33,34.35,16.93,41.34,16.93v-4.9c-5.82,0-21.63-3.19-38.36-15.92Zm2.52-7.33-3,3.9,3.9,3,3-3.89Z"/><path class="cls-9" d="M1004.37,434.3c67.69,34.22-22,175.6-75.56,227.33H840.65C861.11,568.61,922.51,392.9,1004.37,434.3Z"/><path class="cls-10" d="M879.68,660.43l-2.14-1.2-1.21,2.14,2.14,1.2Zm3.46-6.12,1.21-2.14L882.2,651l-1.2,2.14Zm.83,8.53L882.76,665l2.15,1.2,1.2-2.13Zm3.46-6.13,2.14,1.2,1.21-2.13-2.15-1.2Zm85.09-150.66,2.14,1.2,1.21-2.13-2.14-1.21Zm-19,33.68-1.21,2.14,2.14,1.2,1.21-2.13Zm14.73-36.08,1.21-2.14-2.15-1.2-1.2,2.14Zm-19,33.68-2.15-1.2-1.2,2.14,2.14,1.2ZM898,629.87l-2.29.9.9,2.28,2.29-.9ZM888,572l.23-2.43-2.45-.23-.23,2.43Zm14.57,56.09.9,2.28,2.29-.9-.9-2.28Zm-9.68-55.62,2.45.23.23-2.44-2.45-.23Zm5.25,55.32-2.14-1.2-1.21,2.13,2.14,1.2ZM915,598l1.21-2.13-2.15-1.2-1.2,2.13Zm-12.54,32.21-1.21,2.14,2.14,1.2,1.21-2.14Zm16.83-29.8,2.14,1.2,1.21-2.14-2.14-1.2Zm-16.83,29.8,2.14,1.2,1.21-2.13-2.15-1.2Zm-15,26.54-1.21,2.14,2.15,1.2,1.2-2.14Zm10.7-28.94,1.21-2.14-2.15-1.2-1.2,2.14Zm-15,26.54-2.14-1.2-1.21,2.13,2.14,1.21Zm34.23-57.58.27-2.43L915.2,594l-.27,2.44ZM957.83,585l2-1.47-1.48-2-2,1.47Zm-41,16.64-2.44-.26-.27,2.43,2.44.26Zm43.94-12.72,1.48,2,2-1.47-1.48-2ZM915,598l-2.14-1.2-1.21,2.14,2.15,1.2ZM930.18,571l1.21-2.14-2.15-1.2-1.2,2.13Zm-10.93,29.35L918,602.5l2.15,1.2,1.2-2.13Zm15.22-27,2.14,1.2,1.21-2.14-2.14-1.2Zm-4.39-.21-2.25,1,1,2.24,2.25-1Zm-7.9-23-2.39.6h0Zm12.4,21,1,2.24,2.25-1-1-2.24ZM927,549.05l2.38-.6h0ZM924.82,525l2.4.51.52-2.39-2.41-.51Zm-4.81-1,.51-2.39-2.4-.51-.52,2.39ZM930.18,571,928,569.81,926.83,572l2.15,1.2Zm19-33.69,1.2-2.13-2.14-1.2-1.21,2.13Zm-14.74,36.09-1.21,2.13,2.15,1.2,1.2-2.13Zm19-33.69,2.14,1.21,1.2-2.14-2.14-1.2Zm-2.06-3.65.08-2.44-2.46-.09L949,536Zm31.22-7.62,2.13-1.24-1.24-2.11-2.12,1.23ZM951.27,541l-2.46-.08-.09,2.45,2.46.08Zm33.88-8.29,1.23,2.11,2.13-1.23-1.24-2.12ZM885.28,653.06v-2.45h-2.45v2.45Zm36.87-15.42,2-1.49-1.49-1.94-2,1.49ZM885.28,658h-2.45v2.45h2.45Zm39.86-16.43,1.49,2,2-1.49-1.49-1.94Zm-43.32,20.1,3.46-6.12-4.28-2.4-3.46,6.12Zm3.35-.93-4.28-2.4-2.42,4.27,4.29,2.4Zm.11-5.19-3.46,6.12,4.29,2.41,3.46-6.13Zm-3.35.94,4.29,2.4,2.41-4.27-4.28-2.41Zm88.45-151.6-19,33.68,4.29,2.41,19-33.69Zm-3.35.93,4.28,2.41,2.42-4.28-4.29-2.4Zm-15.68,32.75,19-33.68-4.29-2.4-19,33.68Zm3.35-.93-4.29-2.4L948,539.47l4.29,2.4ZM900.27,629c-4.1-10.34-11.81-36.17-9.84-56.75l-4.89-.47c-2.08,21.74,6,48.44,10.16,59Zm1.39-3.18-4.58,1.8,1.81,4.56,4.57-1.8Zm-11.22-53.57c-2,20.58,5.73,46.41,9.83,56.75l4.58-1.8c-4-10.11-11.38-35.07-9.52-54.49Zm-2.69,2.2,4.9.47.46-4.88-4.89-.46ZM900.27,629l16.84-29.8-4.29-2.41L896,626.57Zm3.35-.93-4.28-2.41-2.42,4.27,4.29,2.41Zm13.49-28.87L900.27,629l4.29,2.4,16.83-29.8Zm-3.35.93,4.28,2.4,2.42-4.27-4.29-2.4ZM900.27,629l-15,26.54,4.29,2.4,15-26.54Zm-3.35.93,4.29,2.41,2.41-4.27-4.28-2.41Zm-11.64,25.61,15-26.54-4.28-2.4-15,26.54Zm3.35-.93-4.28-2.41-2.42,4.28,4.29,2.4Zm28.48-55.41c7.51.81,26.46-.49,42.2-12.25L956.36,583c-14.49,10.82-32.09,12-38.72,11.3Zm2.18,2.7.53-4.87-4.89-.53-.53,4.87Zm40-15c-15.74,11.76-34.69,13.06-42.2,12.25l-.54,4.86c8.39.92,28.69-.5,45.69-13.19Zm-3.45-.49,2.95,3.92,3.94-2.94-3-3.92Zm-38.75,12.74,15.22-26.95L928,569.81l-15.22,27Zm3.35-.94-4.29-2.4-2.41,4.27,4.28,2.4Zm11.87-26-15.22,26.95,4.28,2.4,15.22-27Zm-3.35.93,4.28,2.4,2.42-4.27-4.29-2.4Zm3.35-.93a150.94,150.94,0,0,1-7.77-22.57l-4.77,1.2a156.7,156.7,0,0,0,8,23.35Zm1.25-3.23-4.5,2,2,4.48,4.5-2Zm-9-19.34a150.94,150.94,0,0,0,7.77,22.57l4.5-2a145.59,145.59,0,0,1-7.5-21.79Zm-2.15-25.2c-1.48,6.86-.13,16.25,2.15,25.2l4.77-1.2c-2.26-8.85-3.33-17.3-2.11-23Zm-2.92,1.88,4.81,1,1-4.79-4.81-1Zm5.07,23.32c-2.28-8.95-3.63-18.34-2.15-25.2l-4.81-1c-1.73,8-.12,18.37,2.19,27.43Zm7.77,22.57,19-33.69-4.29-2.4-19,33.68Zm3.35-.94-4.29-2.4L929,573.15l4.28,2.4Zm15.67-32.75-19,33.69,4.28,2.4,19-33.68Zm-3.35.94,4.29,2.4,2.41-4.27-4.29-2.4Zm3.35-.94c5.93.21,20.75-1.1,32.55-8l-2.47-4.23c-10.73,6.23-24.51,7.48-29.91,7.3Zm2.37,2.54.17-4.9L949,536l-.17,4.9Zm30.18-10.5c-11.8,6.86-26.62,8.17-32.55,8l-.17,4.9c6.47.22,22.31-1.14,35.2-8.63Zm-3.36-.88,2.48,4.23,4.25-2.47-2.48-4.23ZM885.28,655.51c5.82,0,21.63-3.19,38.36-15.92l-3-3.89c-15.95,12.14-30.72,14.91-35.37,14.91Zm2.46,2.45v-4.9h-4.91V658Zm35.9-18.37c-16.73,12.73-32.54,15.92-38.36,15.92v4.9c7,0,23.84-3.6,41.35-16.93Zm-3.45-.46,3,3.89,3.91-3-3-3.9Z"/><path class="cls-11" d="M902.64,132.81a18.8,18.8,0,0,1,10.42,16.82V677.31H878.43l3.15-555Z"/><path class="cls-12" d="M865.84,122.29A25.13,25.13,0,0,1,891,147.38V677.31H516.35V147.38a25.14,25.14,0,0,1,25.19-25.09Z"/><path class="cls-13" d="M636,150.51H569.88a25.15,25.15,0,0,0-25.19,25.09V677.31H865.84V175.6a25.15,25.15,0,0,0-25.19-25.09H774.53v9.41A25.14,25.14,0,0,1,749.34,185H661.18A25.13,25.13,0,0,1,636,159.92Z"/><path class="cls-14" d="M536.72,451.81l-15.18,26.32c-.3,1.34-7.37.38-33.31-14.26-32.42-18.3-7-48.05,1-47.72,6.75.28,20.25,8.15,26.27,15.56-1-3.52-1.94-10.85,2.65-12.12S532.44,440.55,536.72,451.81Z"/><path class="cls-15" d="M517.5,419.82a3.93,3.93,0,0,1,.66-.22,1.76,1.76,0,0,1,.76,0c4.84,1.12,13.75,21.57,17.8,32.22l-15.19,26.32a.38.38,0,0,1-.08.17c-2.57.14-11.48-2.68-33.92-14.95-.91-.5-1.78-1-2.61-1.52-27.29-18.39-3.44-46,4.29-45.68a11.71,11.71,0,0,1,2.08.28c6.25,1.63,15.13,6.64,21.08,12a32.49,32.49,0,0,1,3.11,3.29,1.66,1.66,0,0,0-.06-.21l.11.12a21.42,21.42,0,0,1-.71-3.1C514.37,425.15,514.64,421.11,517.5,419.82Z"/><path class="cls-16" d="M744.62,257.13c15.74,40.76,3.15,61.14,23.61,83.09s29.91,50.18,12.6,61.15c-13.86,8.78-86.59-8.88-121.22-18.81l-14.17,4.7c-4.72-2.61-17.63-17.25-18.89-29.79-1.57-15.68,0-51.74-4.72-78.39-3.39-19.1,18.89-83.1,85-61.15C716.81,217.41,732,224.52,744.62,257.13Z"/><path class="cls-13" d="M517.21,479.9a5.48,5.48,0,0,1-1.61-7.1l14.27-25.65a5.51,5.51,0,0,1,7.45-2.15l6.78,3.71a5.47,5.47,0,0,1,2.1,7.55L531,482.34a5.5,5.5,0,0,1-8,1.7Z"/><path class="cls-17" d="M622.55,392.79a31.34,31.34,0,0,0-12.82,19L595.07,478.2l-43.14-26.33a6.3,6.3,0,0,0-8.83,2.35l-14.83,27.27a6.26,6.26,0,0,0,1.53,7.83l85.73,70.4V677.31H818.61l-7.87-92.5c15.74-1.57,46-14.42,40.93-53.31-6.3-48.6-40.93-128.56-63-144.24-17.63-12.54-55.63-29.27-72.42-36.06l-42.5,6.27Z"/><path class="cls-13" d="M728.77,356.44c-8.93,6.28-24.85,15.2-42.4,18.28-16.23,2.85-24.44-1.93-27.92-6.68l15.33-10.57,42.5-6.27C719.69,352.58,724,354.37,728.77,356.44Z"/><path class="cls-18" d="M625.06,391.57a31.34,31.34,0,0,0-12.41,17.91L595.07,478.2l-43.14-26.33a6.3,6.3,0,0,0-8.83,2.35l-14.83,27.27a6.26,6.26,0,0,0,1.53,7.83l85.73,70.4V677.31H818.61l-7.87-92.5c15.74-1.57,46-14.42,40.93-53.31-6.3-48.6-40.93-128.56-63-144.24-17.63-12.54-55.63-29.27-72.42-36.06l-42.5,6.27Z"/><path class="cls-15" d="M713.93,349.72l8.65,4.17c-8.66,4.46-22,11.42-29.91,13-3.15.63-25.37,2.9-26.76-3.14l10.28-9.85V338.58l37.74-19.5Z"/><path class="cls-19" d="M705.46,359.44c.62-12.78,1.4-28.65-6.49-20.78-6.34,6.31-16.31,6.79-22.78,6.56v-5l4.76-4.06,33-17v30.64l8.65,4.17-.79.41c-4.76,2.45-10.76,5.54-16.47,8.08C705.36,361.43,705.41,360.44,705.46,359.44Z"/><path class="cls-15" d="M679.81,342.76c20.4,0,36.23-25.61,41.6-38.41,7.6-1.37,20.66-8.5,12.07-26.06-4.29-5.49-9.84-1.37-12.07,1.37l-2.68,15.09L712,272.8c-6.27-.91-20.4-6.58-26.84-21.94-10.29,11-31.13,28.53-32.2,11-3.14,6.4-11.54,18.38-20.13,15.09C633.74,298.86,644.39,342.76,679.81,342.76Z"/><path class="cls-20" d="M615.53,429.59V569.13"/><ellipse class="cls-8" cx="645.97" cy="287.87" rx="4.06" ry="4.04"/><path class="cls-21" d="M706.94,287.06h12.59"/><ellipse class="cls-8" cx="685.12" cy="287.87" rx="4.06" ry="4.04"/><ellipse class="cls-22" cx="692.12" cy="287.87" rx="15.21" ry="15.15"/><ellipse class="cls-22" cx="651.57" cy="287.87" rx="15.21" ry="15.15"/><path class="cls-8" d="M666.19,305.39l.95.35h0Zm-.59-1.3.35-.95h0Zm-.72,4.78.94.36Zm2.34,4.06.17-1h0Zm1.23.2-.17,1h0Zm.83,1.16-1-.17h0Zm-1.17.83.17-1h0Zm-1.22-.2-.16,1h0ZM663,308.16l.95.36h0Zm1.31-3.48-.95-.35h0Zm15.5,16.82-.85-.56h0Zm-.28-1.4-.57.84h0ZM663,321.66l-.72.71h0Zm1.43-1.43-.72.71h0Zm13.65.15.84.56h0Zm-11-14.64a2,2,0,0,0-1.19-2.6l-.71,1.9h0Zm-1.32,3.49,1.32-3.49-1.9-.7-1.31,3.48Zm1.57,2.7a2,2,0,0,1-1.57-2.7l-1.89-.71a4,4,0,0,0,3.13,5.4Zm1.22.2-1.22-.2-.33,2,1.22.2Zm1.67,2.33a2,2,0,0,0-1.67-2.33l-.33,2h0ZM668,316.11a2,2,0,0,0,2.33-1.65l-2-.34h0Zm-1.22-.2,1.22.2.33-2-1.22-.2Zm-4.7-8.1a6.05,6.05,0,0,0,4.7,8.1l.33-2a4,4,0,0,1-3.13-5.4Zm1.31-3.48L662,307.81l1.9.71,1.31-3.48Zm2.61-1.19a2,2,0,0,0-2.61,1.19l1.9.71h0Zm14.68,18.92a2,2,0,0,0-.56-2.8l-1.13,1.68h0ZM671.84,326c4.74,0,7.74-2.36,8.79-3.93l-1.69-1.12c-.68,1-3,3-7.1,3Zm-9.54-3.62a14.29,14.29,0,0,0,9.54,3.62v-2a12.29,12.29,0,0,1-8.11-3Zm0-2.86a2,2,0,0,0,0,2.86l1.43-1.43h0Zm2.87,0a2,2,0,0,0-2.87,0l1.43,1.43h0Zm6.67,2.44a10.24,10.24,0,0,1-6.67-2.44l-1.44,1.43a12.29,12.29,0,0,0,8.11,3Zm5.41-2.13c-.3.45-2,2.13-5.41,2.13v2c4.06,0,6.42-2,7.1-3Zm2.82-.56a2,2,0,0,0-2.82.56l1.69,1.12h0Z"/><path class="cls-23" d="M677.36,287.25H665.83"/><path class="cls-24" d="M699.25,266a18.17,18.17,0,0,0-13.09,0"/><path class="cls-25" d="M667.48,480.19l-10.57,33.16c0,1.58-8.17,2.21-40.81-7.9-40.79-12.63-19.64-52.11-10.57-53.69,7.63-1.33,24.68,4.21,33.24,11.06-2-3.69-4.83-11.69,0-14.22S659.92,468.61,667.48,480.19Z"/><path class="cls-15" d="M638.12,449a6.45,6.45,0,0,1,.68-.41,2,2,0,0,1,.86-.19c5.69.08,20.68,20.82,27.82,31.78L656.9,513.35a.41.41,0,0,1,0,.21c-2.84.79-13.51-.21-41.66-8.52-1.14-.33-2.24-.69-3.29-1.07-35.07-14-15.11-50.69-6.37-52.21a15.83,15.83,0,0,1,2.4-.2c7.41.32,18.57,3.78,26.55,8.33a37.36,37.36,0,0,1,4.29,2.93l-.12-.22.15.11a24.7,24.7,0,0,1-1.56-3.31C635.92,455.73,635.23,451.14,638.12,449Z"/><path class="cls-13" d="M654.29,517.63a6.26,6.26,0,0,1-4.23-8.63l13.53-30.31a6.3,6.3,0,0,1,7.74-3.4l13.47,4.47-18.89,40.77Z"/><path class="cls-8" d="M771.89,501l.51-1.49h0Zm-2,1-1.49-.51h0Zm27.19,7.63.51-1.49h0Zm1,2,1.49.51h0Zm-2,1,.51-1.48h0ZM770.87,504l-.51,1.49h0Zm-74.56-28.77-.51,1.48h0Zm-14.52,7,1.43.65h0ZM771.89,501l.51-1.49h0Zm1,2,1.49.51h0Zm-2,1-.51,1.49h0Zm-75.58-25.8.51-1.49h0Zm-10.63,5.35,1.43.65h0Zm-1,2.1-1.4-.72h0Zm-.41.8,1.4.72h0Zm-.12.23,1.39.73h0Zm0,.07,1.4.73h0Zm0,0,1.4.74h0Zm0,0-1.39-.73h0Zm0,0-1.39-.73h0Zm0,0-1.39-.73h0Zm0,0-.74,1.38,1.41.74.73-1.4Zm-1.39-.73.74-1.39-1.48,2.77Zm1.39.73,1.39.73.74-1.38-1.39-.74Zm-2.13.65-.73,1.39h0Zm-.65-2.12-1.39-.74h0Zm0,0,1.38.74h0Zm0,0-1.39-.73h0Zm0,0,1.39.73h0Zm0,0,1.39.73h0Zm0-.06,1.39.73h0Zm.12-.23,1.39.73h0Zm.4-.77,1.4.71h0Zm85.83-51.63-1.57.14h0Zm-1.71-1.42.14,1.56h0Zm8,71.21,1.57-.14h0Zm-1.43,1.7-.14-1.56h0Zm-1.71-1.42,1.57-.14h0Zm-6.29-69.79L762,433h0Zm8.88,66.68a3.16,3.16,0,0,0-4,1.95l3,1h0Zm25.19,8.6-25.19-8.6-1,3,25.19,8.6Zm2,4a3.14,3.14,0,0,0-2-4l-1,3h0Zm-4,2a3.16,3.16,0,0,0,4-2l-3-1h0Zm-25.19-8.6,25.19,8.6,1-3-25.19-8.6Zm-2-4a3.14,3.14,0,0,0,2,4l1-3h0Zm-71.58-27.75c-7-2.4-13.75,1.9-16.46,7.85l2.86,1.3c2.23-4.88,7.5-7.92,12.58-6.19Zm75.58,25.8-75.58-25.8-1,3,75.58,25.81Zm2,4a3.14,3.14,0,0,0-2-4l-1,3h0Zm-4,1.95a3.15,3.15,0,0,0,4-1.95l-3-1h0Zm-75.58-25.81,75.58,25.81,1-3L695.8,476.71Zm-8.69,4.52c1.73-3.79,5.5-5.61,8.69-4.52l1-3c-5.08-1.73-10.35,1.3-12.58,6.19ZM685,486.36c.32-.64.74-1.47,1.06-2.16l-2.87-1.3c-.28.62-.67,1.41-1,2Zm-.42.81.42-.81-2.81-1.43-.4.79Zm-.13.24.13-.24-2.79-1.45-.13.23Zm0,.07,0-.07L681.69,486l0,.06Zm0,0v0L681.66,486v0Zm0,0h0L681.65,486h0Zm0,0h0L681.65,486h0Zm0,0h0L681.65,486h0Zm0,0h0l-2.8-1.45h0Zm-3.53-.07,1.39.73,1.48-2.77-1.39-.73Zm2.87-2-1.39-.73-1.48,2.77,1.39.73Zm-3.6,3.43a3.15,3.15,0,0,0,4.25-1.31L681.65,486h0Zm-1.31-4.24a3.12,3.12,0,0,0,1.31,4.24l1.47-2.77h0Zm0,0h0l2.77,1.48h0Zm0,0h0l2.78,1.46h0Zm0,0h0l2.78,1.47h0Zm0,0h0l2.78,1.47v0Zm0-.06,0,.06,2.78,1.46,0-.06Zm.12-.22-.12.22,2.78,1.46.12-.23Zm.39-.76-.4.76,2.8,1.45.4-.79Zm.94-1.91c-.26.56-.62,1.29-.94,1.91l2.8,1.42c.33-.62.72-1.41,1-2Zm87.86-49.15a3.13,3.13,0,0,0-3.42-2.84l.28,3.12h0Zm6.3,69.79-6.3-69.79-3.14.28,6.3,69.79Zm-2.86,3.4a3.13,3.13,0,0,0,2.86-3.4l-3.14.28h0Zm-3.41-2.84a3.13,3.13,0,0,0,3.41,2.84l-.28-3.12h0ZM762,433l6.3,69.79,3.13-.28-6.3-69.79Zm2.85-3.4A3.13,3.13,0,0,0,762,433l3.13-.28h0Z"/><path class="cls-20" d="M812.31,584.81,670.83,526.35a6.53,6.53,0,0,1-3.35-9h0l1.58-3.13"/><path class="cls-20" d="M724.15,284.27c1.64-1.82,5.16-4.09,6.14,1.36s-2.86,10.45-4.91,12.26"/><path class="cls-26" d="M425,481.69l-35.13,5.62V674.84h47.78C432.51,634.77,426,553.77,425,546.07S426.06,501.46,425,481.69Z"/><path class="cls-27" d="M212.4,400.52c-8.33,5.53-42.74,43.87-53,140.67a3.15,3.15,0,0,0,3.11,3.49h24.64l9.83,130.16H403.52V512.48l36.74-11.76a3.11,3.11,0,0,0,2.13-3.52c-4.94-27.45-15.8-79.3-23.41-86.89-7.87-7.84-64.18-31.26-91.34-42l-46.38-2.8C261.12,375.32,219.15,396,212.4,400.52Z"/><path class="cls-11" d="M212.4,400.52c-8.43,5.6-43.56,44.78-53.4,144.16h28.11l9.83,130.16H403.52V512.48l39.35-12.59c-4.68-26.6-16-81.74-23.89-89.58s-64.18-31.26-91.34-42l-46.38-2.8C261.12,375.32,219.15,396,212.4,400.52Z"/><path class="cls-15" d="M281.26,365.53,270,371.12c10.77,9.8,38.78,23.52,64.64,0l-9.84-5.59V331.94l-22.48-18.2-21.08,19.6Z"/><path class="cls-19" d="M291.6,323.72c4.79,11.6,15.55,28.22,33.22,34.66V331.94l-11.9-9.64-16.68-2.89Z"/><path class="cls-28" d="M432.8,436.9a2.81,2.81,0,0,1,2.8,3l-8,100.78a2.81,2.81,0,0,1-2.81,2.57h-59a2.8,2.8,0,0,1-2.8-3l8-100.76a2.8,2.8,0,0,1,2.8-2.59Z"/><path class="cls-29" d="M363.19,538l1.12-14.12c38.48-9,59.48-52.83,68.62-86.94a2.79,2.79,0,0,1,2.67,3l-8,100.78a2.81,2.81,0,0,1-2.81,2.57H366.27Z"/><path class="cls-16" d="M281.26,352.93c-5.62,0-14.05-1.4-15.46-26.59v-12.6c-8,.94-20.23-4.76-5.62-35a42.53,42.53,0,0,1,8.43-12.59c-1.87-7,.28-28.84,12.65-37.79,15.46-11.2,39.35-13,59-16.8C353.87,208.77,375,208,381,220c4.21,8.4-3.75,16.79-5.62,16.79,8.43.94,24.45,5.88,21.08,18.2s-19.21,24.72-26.71,29.39l-73.07,42C293.44,335.2,285.76,352.93,281.26,352.93Z"/><path class="cls-15" d="M341,346.81a12.56,12.56,0,0,1-7.46,1.82c-8.37-.63-27.42-4.76-41-30.69-6.09,1.4-18,0-16.86-16.8s13.58-9.79,19.67-4.19c1.88-3.74,5.34-14.84,4.22-29.4,11.24,3.74,34.85,10.08,39.35,5.6s0-9.33-2.81-11.19c8,4.66,25.57,10.91,32.32-1.4C372,282.15,371.26,328.47,341,346.81Z"/><path class="cls-16" d="M275.64,257.76c-4.22-7.93-14.33-21.84-21.08-14-4.83,5.61.62,13.95,6.85,20.29-10-.12-20.57,1.69-18.09,9.1,3.37,10.08,17.33,6.07,23.89,2.8l1.4-5.6,2.81-4.19v-.84Zm-4.22,7.56v-.56a87.3,87.3,0,0,0-10-.71,65.83,65.83,0,0,0,7.2,6.3Z"/><ellipse class="cls-8" cx="359.17" cy="286.56" rx="3.62" ry="3.61"/><ellipse class="cls-8" cx="324.23" cy="286.56" rx="3.62" ry="3.61"/><path class="cls-8" d="M341.13,302.2l-.85.31h0Zm.53-1.16-.32-.85h0Zm.64,4.27-.85.31h0Zm-2.1,3.61-.14-.89h0Zm-1.08.18.14.89h0Zm-.75,1-.89.15h0Zm1,.74.15.89h0Zm1.09-.18-.14-.89h0Zm3.5-6-.85.32h0Zm-1.18-3.11-.84.32h0ZM329,322.18l.76-.51h0Zm15,.13-.64-.64h0Zm0-1.27-.64.63h0Zm-1.28,0,.64.63h0Zm-12.18.14.75-.51h0ZM342,301.88h0l-.64-1.69a1.81,1.81,0,0,0-1.06,2.32Zm1.17,3.11L342,301.88l-1.7.63,1.17,3.11Zm-2.79,4.82a3.61,3.61,0,0,0,2.79-4.82l-1.7.63a1.8,1.8,0,0,1-1.39,2.41Zm-1.1.18,1.1-.18-.3-1.78-1.1.18Zm0,0h0l-.3-1.78a1.81,1.81,0,0,0-1.48,2.08Zm0,0h0l-1.78.3a1.8,1.8,0,0,0,2.08,1.48Zm1.1-.18-1.1.18.3,1.78,1.09-.18Zm2.79-4.82a3.61,3.61,0,0,1-2.79,4.82l.29,1.78a5.41,5.41,0,0,0,4.19-7.23ZM342,301.88l1.17,3.11,1.69-.63-1.17-3.11Zm0,0h0l1.69-.63a1.81,1.81,0,0,0-2.33-1.06Zm-12.23,19.79h0l-1-1.49a1.79,1.79,0,0,0-.5,2.49Zm6.33,2.71c-3.62,0-5.73-1.8-6.33-2.71l-1.51,1c.94,1.41,3.61,3.51,7.84,3.51Zm7.24-2.71a10.91,10.91,0,0,1-7.24,2.71v1.8A12.74,12.74,0,0,0,344.6,323Zm0,0h0L344.6,323a1.79,1.79,0,0,0,0-2.55Zm0,0h0l1.28-1.27a1.82,1.82,0,0,0-2.56,0Zm-7.24,2.71a10.91,10.91,0,0,0,7.24-2.71L342,320.4a9.15,9.15,0,0,1-6,2.18Zm-6.33-2.71c.6.91,2.71,2.71,6.33,2.71v-1.8a6,6,0,0,1-4.83-1.91Zm0,0h0l1.5-1a1.81,1.81,0,0,0-2.51-.49Z"/><path class="cls-30" d="M174.46,544.68h68.86v7.73a1.41,1.41,0,0,0,1.92,1.31l97.22-38.19a1.31,1.31,0,0,0,.81-.89c1.5-5.72,4.69-25.53,6.85-28.75s13.58-7.93,18.27-9.79l-1.23,14.72a1.38,1.38,0,0,0,1.81,1.44c15.22-4.87,39.67-14,47.2-16.16,9.84-2.81,12.65,29.39,5.62,40.58-5.58,8.89-33.76,18.52-50.21,23.68a1.33,1.33,0,0,0-.63.41c-14.33,16.54-58.88,59-124.82,99.08C179.8,680.15,170.71,593.19,174.46,544.68Z"/><path class="cls-15" d="M246.13,639.85c65.94-40.07,110.49-82.54,124.82-99.08a1.33,1.33,0,0,1,.63-.41c16.45-5.16,44.63-14.79,50.21-23.68,7-11.19,4.22-43.39-5.62-40.58-7.56,2.15-32.16,11.36-47.37,16.22A1.39,1.39,0,0,1,367,491V476.1c-4.69,1.86-14.62,6.43-16.87,9.79s-5.35,23-6.85,28.75a1.31,1.31,0,0,1-.81.89l-97.22,38.19a1.41,1.41,0,0,1-1.92-1.31v-7.73H174.46C170.71,593.19,179.8,680.15,246.13,639.85Z"/><path class="cls-20" d="M237.7,544.68h12.64l11.25-74.19"/><path class="cls-24" d="M368.69,276.37a18.23,18.23,0,0,0-12.95-1.86"/><path class="cls-24" d="M314.94,276.22a18.2,18.2,0,0,1,13-1.55"/><path class="cls-31" d="M70.72,109.75a4.59,4.59,0,0,0-4.6,4.58v91.61a4.59,4.59,0,0,0,4.6,4.58H254a4.58,4.58,0,0,1,3.91,2.17L268.64,230a1.15,1.15,0,0,0,2.13-.6v-115a4.59,4.59,0,0,0-4.6-4.58Z"/><ellipse class="cls-10" cx="116.49" cy="159.92" rx="12.59" ry="12.54"/><ellipse class="cls-10" cx="163.72" cy="159.92" rx="12.59" ry="12.54"/><ellipse class="cls-10" cx="210.95" cy="159.92" rx="12.59" ry="12.54"/><path class="cls-31" d="M14.17,661.63H1015.39a14.15,14.15,0,0,1,14.17,14.12h0a14.15,14.15,0,0,1-14.17,14.11H14.17A14.14,14.14,0,0,1,0,675.75H0A14.14,14.14,0,0,1,14.17,661.63Z"/><path class="cls-32" d="M1028.08,669.47a14.15,14.15,0,0,1-12.69,7.84H14.17a14.18,14.18,0,0,1-12.7-7.84,14.2,14.2,0,0,1,12.7-7.84H1015.39A14.17,14.17,0,0,1,1028.08,669.47Z"/><path class="cls-31" d="M940,94.07a4.59,4.59,0,0,1,4.6,4.58v91.61a4.59,4.59,0,0,1-4.6,4.58H756.65a4.61,4.61,0,0,0-3.92,2.17L742,214.3a1.14,1.14,0,0,1-2.12-.6v-115a4.59,4.59,0,0,1,4.6-4.58Z"/><ellipse class="cls-10" cx="894.17" cy="144.24" rx="12.59" ry="12.54"/><ellipse class="cls-10" cx="846.95" cy="144.24" rx="12.59" ry="12.54"/><ellipse class="cls-10" cx="799.72" cy="144.24" rx="12.59" ry="12.54"/></g></g></svg>