<svg xmlns="http://www.w3.org/2000/svg" xmlns:xlink="http://www.w3.org/1999/xlink" viewBox="0 0 878 878"><defs><style>.cls-1{fill:#72c6a6;}.cls-10,.cls-18,.cls-2{fill:#fff;}.cls-2{fill-opacity:0.4;}.cls-3{fill:#c4c4c4;}.cls-11,.cls-14,.cls-22,.cls-24,.cls-25,.cls-27,.cls-4,.cls-5,.cls-6{fill:none;}.cls-14,.cls-25,.cls-4,.cls-5,.cls-6{stroke:#fff;}.cls-4{stroke-width:1.52px;}.cls-11,.cls-5{stroke-width:2px;}.cls-6{stroke-width:1.54px;}.cls-7{fill:#bcc886;}.cls-13,.cls-17,.cls-18,.cls-19,.cls-20,.cls-21,.cls-26,.cls-29,.cls-32,.cls-36,.cls-7,.cls-9{fill-rule:evenodd;}.cls-19,.cls-8{fill:#783d37;}.cls-9{fill:#cae298;}.cls-11,.cls-22,.cls-24,.cls-27{stroke:#783d37;}.cls-12,.cls-32{fill:#ffdb7a;}.cls-13,.cls-31{fill:#fbc547;}.cls-14,.cls-22,.cls-24,.cls-27{stroke-linecap:round;}.cls-15{fill:url(#linear-gradient);}.cls-16{fill:url(#linear-gradient-2);}.cls-17{fill:#f94d5d;}.cls-20{fill:#ffddd1;}.cls-21,.cls-23{fill:#fec2a7;}.cls-22{stroke-width:0.82px;}.cls-24{stroke-width:0.89px;}.cls-26{fill:#ef2d35;}.cls-28{fill:#bbbfc3;}.cls-29{fill:#a7afb6;}.cls-30{fill:#777;}.cls-33{fill:#4bc7e9;}.cls-34{fill:#6ad6f3;}.cls-35{fill:#00286e;}.cls-36{fill:#00738e;}</style><linearGradient id="linear-gradient" x1="303.25" y1="559.85" x2="303.25" y2="363.87" gradientTransform="matrix(1, 0, 0, -1, 0, 1060)" gradientUnits="userSpaceOnUse"><stop offset="0" stop-color="#ffddd1"/><stop offset="1" stop-color="#fec2a7"/></linearGradient><linearGradient id="linear-gradient-2" x1="590.43" y1="559.85" x2="590.43" y2="363.87" xlink:href="#linear-gradient"/></defs><g id="Layer_2" data-name="Layer 2"><g id="_02" data-name="02"><path class="cls-1" d="M439,878C196.55,878,0,681.45,0,439S196.55,0,439,0,878,196.55,878,439,681.45,878,439,878Z"/><path class="cls-2" d="M142.24,370.39a26.22,26.22,0,1,1,26.21-26.21A26.22,26.22,0,0,1,142.24,370.39Z"/><path class="cls-2" d="M357.47,103.48A34.5,34.5,0,1,1,392,69,34.49,34.49,0,0,1,357.47,103.48Z"/><path class="cls-2" d="M672.49,233.13A26.54,26.54,0,1,1,699,206.6,26.53,26.53,0,0,1,672.49,233.13Z"/><path class="cls-2" d="M765.11,536.21a34.5,34.5,0,1,1,34.5-34.5A34.5,34.5,0,0,1,765.11,536.21Z"/><path class="cls-2" d="M141.11,605.19A34.49,34.49,0,1,1,175.6,570.7,34.5,34.5,0,0,1,141.11,605.19Z"/><path class="cls-2" d="M307.3,326.11A15.68,15.68,0,1,1,323,310.44,15.68,15.68,0,0,1,307.3,326.11Z"/><circle class="cls-2" cx="570.7" cy="84.66" r="15.68"/><circle class="cls-3" cx="692.99" cy="548.75" r="15.68"/><path class="cls-2" d="M31.36,457.81A15.68,15.68,0,1,1,47,442.14,15.68,15.68,0,0,1,31.36,457.81Z"/><circle class="cls-2" cx="768.25" cy="263.4" r="15.68"/><circle class="cls-4" cx="149.39" cy="339.41" r="23.83"/><circle class="cls-5" cx="774.52" cy="498.58" r="31.36"/><circle class="cls-5" cx="153.65" cy="567.56" r="31.36"/><circle class="cls-6" cx="682.14" cy="204.18" r="24.12"/><circle class="cls-5" cx="373.15" cy="59.58" r="31.36"/><path class="cls-7" d="M142.46,636.82c-14.25,33.12,61.66,57.62,97,60.29l32.16-26.81C235.74,642.45,159.68,596.76,142.46,636.82Z"/><path class="cls-8" d="M257.15,681.36l1.46.55.56-1.46-1.47-.56Zm-3.14-1.2.56-1.46-1.46-.56-.56,1.47Zm2,4.13-.56,1.46,1.47.56.56-1.47Zm-3.13-1.19-1.47-.56-.55,1.46,1.46.56Zm-77.05-29.31-1.47-.56-.56,1.47,1.47.55Zm17.22,6.55-.55,1.47,1.46.55.56-1.46ZM177,650.86l.56-1.47-1.47-.56-.55,1.47Zm17.23,6.55,1.46.56.56-1.47-1.46-.56ZM241.37,676l.49,1.48,1.49-.49-.49-1.49Zm-14.12-24.41,1.1-1.11-1.11-1.1-1.11,1.11ZM238.4,677l-1.49.49.49,1.49,1.49-.49ZM225,653.8l-1.12-1.1-1.1,1.11,1.11,1.1Zm15.4,21.2,1.47.56.55-1.47-1.46-.55Zm-15.24-5.79.56-1.47-1.47-.56-.56,1.47Zm14.13,8.72-.56,1.47,1.46.55.56-1.46Zm-15.25-5.8-1.46-.55-.56,1.46,1.47.56Zm15.25,5.8-1.47-.55-.56,1.46,1.47.56Zm13.57,5.17-.56,1.46,1.47.56.56-1.47ZM240.44,675l.56-1.46-1.47-.56-.55,1.47ZM254,680.16l1.47.56.56-1.46-1.47-.56Zm-30.5-10.58,1.09-1.13-1.13-1.09-1.09,1.13Zm-18.09,7.87-.08-1.56-1.56.08.08,1.56Zm20.35-5.69,1.13,1.09,1.09-1.13-1.13-1.09Zm-20.19,8.82-1.56.08.08,1.57,1.57-.08Zm19.62-11.37,1.46.55.56-1.46-1.46-.56ZM211.42,664l.55-1.46-1.46-.56L210,663.4Zm12.66,8.17-.55,1.47,1.46.56.56-1.47Zm-13.78-5.24-1.46-.55-.56,1.46,1.46.56Zm2.07-1.89.43,1.51,1.5-.44-.43-1.51Zm-4.16-10.88,1.42-.67h0Zm1.14,11.74-1.51.43.43,1.51,1.51-.44Zm-4-10.39-1.42.68h0Zm-6.47-9.32-1.23-1-1,1.23,1.23,1Zm1.93-2.47,1-1.23-1.23-1-1,1.23ZM211.42,664l1.46.56.56-1.47L212,662.5Zm-17.23-6.55.56-1.47-1.47-.55-.56,1.46Zm16.11,9.48-.56,1.47,1.47.56.56-1.47Zm-17.23-6.55-1.46-.56-.56,1.47,1.47.56Zm-.48-2.63,1.16-1.05-1-1.17-1.17,1Zm-13.53,6.6-.26-1.54-1.54.26.26,1.54ZM194.68,660l1,1.17,1.17-1-1-1.17Zm-15.1,7.37-1.54.26.26,1.54,1.54-.26Zm72.87,13,1.21-1-1-1.2-1.2,1Zm-17.92,5.48-.06-1.57-1.57.07L233,686Zm19.93-3.07,1,1.21,1.2-1-1-1.2ZM234.67,689l-1.57.07.07,1.56,1.56-.06Zm23-9.14-3.13-1.19-1.11,2.93,3.13,1.19Zm-.2,5,1.11-2.93-2.93-1.11-1.11,2.93Zm-5.16-.28,3.13,1.19,1.12-2.93-3.13-1.19Zm.21-4.95-1.12,2.93,2.94,1.11,1.11-2.93Zm-77.26-24.36,17.23,6.56,1.11-2.93-17.23-6.56Zm.21-5-1.12,2.93,2.93,1.12,1.12-2.94Zm19.25,5.64-17.23-6.55-1.12,2.93,17.23,6.56Zm-.21,5,1.11-2.93-2.93-1.12-1.11,2.93Zm48.32,14.58c-1.71-5.18-7-17.56-14.51-25l-2.21,2.23c7,6.94,12.08,18.74,13.74,23.78Zm-4,3,3-1-1-3-3,1Zm-15-23.54c6.48,6.42,11.36,17.66,13,22.54l3-1c-1.66-5-6.74-16.84-13.74-23.78Zm2.2-4.44-2.21,2.23,2.23,2.2,2.21-2.22ZM241,673.54l-15.24-5.8-1.12,2.93,15.24,5.8Zm-.21,5,1.12-2.93L239,674.45l-1.12,2.93Zm-17.26-4.89,15.24,5.8,1.11-2.93-15.24-5.8Zm.2-5-1.11,2.93,2.93,1.11,1.11-2.93Zm15,10.75,13.57,5.16,1.12-2.93-13.58-5.16Zm.21-4.95-1.12,2.93,2.93,1.11,1.12-2.93Zm15.59,4.25L241,673.54l-1.12,2.93,13.58,5.16Zm-.2,4.95,1.11-2.93-2.93-1.11-1.12,2.93Zm-32-15.16a27.77,27.77,0,0,1-17,7.4l.16,3.13a30.92,30.92,0,0,0,19.14-8.35Zm4.48,2.14-2.26-2.18-2.18,2.26,2.26,2.18Zm-21.19,11.52a34,34,0,0,0,21.23-9.3l-2.26-2.18A30.92,30.92,0,0,1,205.5,679Zm-1.81-4.62.16,3.13,3.13-.16-.16-3.13Zm21.9-9.79L212,662.5l-1.11,2.93,13.78,5.24Zm-.21,5,1.11-2.93-2.93-1.11-1.11,2.93Zm-15.81-4.33,13.79,5.24,1.11-2.93-13.78-5.24Zm.21-5-1.11,2.94,2.93,1.11,1.11-2.93Zm3.92,1.16a74.84,74.84,0,0,0-4.24-11.11l-2.83,1.35a72.32,72.32,0,0,1,4.06,10.63Zm-4.09,2.8,3-.85-.86-3-3,.86ZM204,656.15a68.82,68.82,0,0,1,3.87,10.14l3-.86a72.32,72.32,0,0,0-4.06-10.63Zm-6-8.77c2,1.59,4.15,4.86,6,8.77l2.83-1.35c-1.9-4-4.28-7.82-6.91-9.89Zm1.67-4.67-1.93,2.47,2.46,1.93,1.94-2.46Zm10,10.74c-1.94-4-4.57-8.46-7.81-11l-1.93,2.46c2.63,2.07,5,5.92,6.91,9.89Zm2.34,9-17.22-6.56-1.12,2.94,17.23,6.55Zm-.2,5,1.11-2.93L210,663.4l-1.11,2.94Zm-19.25-5.64,17.22,6.55,1.12-2.93-17.23-6.55Zm.2-5-1.11,2.93,2.93,1.12,1.11-2.93Zm-1.18-.31a29,29,0,0,1-12.74,6.23l.52,3.09a32.12,32.12,0,0,0,14.31-7Zm4.3,2.46-2.09-2.34-2.33,2.09,2.09,2.34Zm-16,10a35.09,35.09,0,0,0,15.88-7.74l-2.09-2.33a32.12,32.12,0,0,1-14.31,7Zm-2.32-4.38.52,3.1,3.09-.52-.52-3.1Zm73.93,14.65c-1.55,1.29-7.61,4.72-17,5.11l.13,3.13c10-.42,16.74-4.06,18.86-5.83Zm4.22,2.61-2-2.41-2.41,2,2,2.41Zm-20.94,8.77c10.62-.45,18-4.31,20.74-6.56l-2-2.41c-2.12,1.77-8.87,5.41-18.86,5.83ZM233,686l.13,3.14,3.13-.14-.13-3.13Z"/><path class="cls-7" d="M759.06,655.63c14.24,33.13-61.66,57.62-97,60.29l-32.16-26.81C665.78,661.26,741.84,615.57,759.06,655.63Z"/><path class="cls-8" d="M644.37,700.17l-.56-1.46-1.46.55.56,1.47ZM647.5,699l1.47-.56-.56-1.46-1.47.55Zm-2,4.12-1.47.56.56,1.46,1.46-.55Zm3.13-1.19.55,1.47,1.47-.56-.56-1.47Zm77-29.31.56,1.47,1.47-.56-.56-1.47Zm-17.23,6.55-1.46.56.56,1.47,1.46-.56Zm16.12-9.48,1.46-.56-.55-1.46-1.47.56Zm-17.23,6.55-.56-1.46-1.46.56.55,1.46Zm-47.18,18.57-1.49-.49-.5,1.49,1.49.49Zm14.12-24.4,1.12-1.11-1.11-1.11-1.11,1.1Zm-11.15,25.38-.49,1.49,1.49.49.49-1.48Zm13.36-23.16,1.1,1.12,1.12-1.11-1.11-1.11Zm-15.4,21.21-.56-1.47-1.47.56.56,1.46Zm15.24-5.8,1.46-.56-.55-1.46-1.47.55Zm-14.13,8.73-1.46.55.55,1.47,1.47-.56Zm15.24-5.8.56,1.47,1.47-.56-.56-1.47Zm-15.24,5.8.56,1.46,1.46-.55-.55-1.47Zm-13.57,5.16-1.47.56.56,1.46,1.46-.55Zm12.46-8.09,1.46-.56L662,691.8l-1.46.55ZM647.5,699l-.56-1.47-1.46.56.56,1.47ZM678,688.4l1.13-1.09-1.09-1.13-1.13,1.09Zm18.08,7.87,1.57.08.08-1.57-1.56-.08Zm-20.34-5.7-1.09-1.13-1.13,1.09,1.09,1.13Zm20.18,8.83-.08,1.56,1.57.09.08-1.57ZM676.32,688l-.56-1.47-1.46.56.56,1.46Zm13.78-5.24,1.47-.56-.56-1.47-1.47.56ZM677.43,691l-1.46.56.56,1.46,1.46-.55Zm13.79-5.24.55,1.46,1.47-.56-.56-1.46Zm-2.07-1.9-1.51-.43-.43,1.51,1.51.43Zm4.15-10.87-1.41-.68h0Zm-1.13,11.73-.43,1.51,1.5.43.43-1.51Zm4-10.38,1.42.68h0ZM702.6,665l1,1.24,1.24-1-1-1.24Zm-1.94-2.47,1.24-1-1-1.24-1.23,1ZM690.1,682.78l-.56-1.47-1.46.56.56,1.46Zm17.23-6.56,1.46-.56-.55-1.46-1.47.56Zm-16.11,9.49-1.47.55.56,1.47,1.46-.56Zm17.22-6.56.56,1.47,1.47-.56-.56-1.46Zm.49-2.63,1.05-1.17-1.17-1-1,1.17Zm13.53,6.61,1.54.26.26-1.55-1.54-.26Zm-15.62-4.27-1.17-1.05-1,1.17,1.17,1Zm15.09,7.36-.26,1.55,1.55.26.26-1.55Zm-72.87,13,1-1.2-1.21-1-1,1.21ZM667,704.71l1.57.07.07-1.57-1.57-.06Zm-19.92-3.06-1.21-1-1,1.21,1.2,1Zm19.79,6.19-.07,1.57,1.57.07.07-1.57Zm-21.92-6.21,3.13-1.19-1.12-2.93-3.13,1.2Zm2,.91-1.12-2.93-2.92,1.12,1.11,2.93Zm1.11-2.1-3.13,1.19,1.11,2.94,3.13-1.19Zm-2-.9,1.11,2.93,2.93-1.12L649,698.42Zm79.08-28.4-17.23,6.55,1.11,2.93,17.23-6.55Zm-2-.91,1.12,2.93,2.93-1.12L726,669.11Zm-15.2,7.46,17.23-6.55L724,668.21l-17.23,6.55Zm2,.91-1.12-2.94-2.93,1.12,1.12,2.93Zm-48.28,16.68c1.67-5,6.74-16.84,13.75-23.78l-2.21-2.23c-7.53,7.47-12.8,19.84-14.51,25Zm2-1-3-1-1,3,3,1Zm11.77-22.78c-7,6.94-12.08,18.75-13.75,23.78l3,1c1.61-4.89,6.5-16.13,13-22.54Zm-2.22,0,2.21,2.23,2.22-2.21-2.2-2.23Zm-11.53,23.79,15.25-5.8-1.12-2.93-15.24,5.8Zm2,.91-1.12-2.93-2.93,1.11,1.12,2.93Zm13.22-6.71-15.25,5.8,1.12,2.93L678,692.42Zm-2-.91,1.11,2.94,2.93-1.12-1.12-2.93Zm-13.23,6.71-13.57,5.16,1.11,2.94,13.58-5.17Zm-2-.91,1.12,2.93,2.93-1.11-1.12-2.93Zm-11.55,6.07,13.57-5.16-1.11-2.93-13.58,5.16Zm2,.91L649,698.42,646,699.54l1.11,2.93Zm26.8-11.87A30.86,30.86,0,0,0,696,697.83l.17-3.13a27.83,27.83,0,0,1-17-7.39Zm0,2.22,2.26-2.18-2.18-2.25-2.26,2.17ZM696,697.83a30.86,30.86,0,0,1-19.13-8.35l-2.26,2.18a34,34,0,0,0,21.23,9.3Zm-1.48-1.64-.16,3.13,3.13.16.16-3.13Zm-17.65-6.71,13.78-5.24-1.12-2.93-13.78,5.24Zm2,.91-1.12-2.93-2.92,1.11,1.11,2.94Zm11.76-6.15-13.78,5.24,1.11,2.94,13.78-5.25Zm-2-.91,1.11,2.93,2.93-1.11-1.11-2.93Zm2,.91a72.75,72.75,0,0,1,4.06-10.63l-2.83-1.35a76.25,76.25,0,0,0-4.25,11.12Zm1.94-1.07-3-.87-.86,3,3,.86Zm2.12-9.56a72.75,72.75,0,0,0-4.06,10.63l3,.86A69,69,0,0,1,697.55,675Zm6.91-9.88c-2.63,2.06-5,5.91-6.91,9.88l2.83,1.36c1.87-3.91,4-7.19,6-8.77Zm-2.2-.27,1.93,2.47,2.47-1.94-1.93-2.46Zm-4.71,10.15c1.9-4,4.28-7.82,6.91-9.88l-1.93-2.47c-3.25,2.54-5.88,7-7.81,11Zm-4.06,10.63,17.23-6.55-1.12-2.93-17.23,6.55Zm2,.91-1.11-2.93-2.93,1.11,1.11,2.93Zm15.21-7.46-17.23,6.55,1.11,2.93L709,680.62Zm-2-.91,1.12,2.93,2.93-1.11-1.12-2.94Zm2,.91a31.91,31.91,0,0,0,14.31,7l.52-3.09A28.85,28.85,0,0,1,710,675.35Zm.12,2.21,2.09-2.33-2.34-2.09-2.09,2.33Zm14.19,4.77a31.91,31.91,0,0,1-14.31-7L705.8,680a35.14,35.14,0,0,0,15.87,7.74Zm-1.29-1.8-.52,3.09,3.09.52.52-3.09Zm-72.85,17.57c2.12,1.77,8.87,5.42,18.86,5.84l.13-3.13c-9.37-.4-15.44-3.82-17-5.11Zm.2,2.21,2-2.4-2.41-2-2,2.4Zm18.66,3.63c-10-.42-16.74-4.07-18.86-5.84l-2,2.41c2.7,2.25,10.12,6.11,20.73,6.56Zm-1.5-1.63-.13,3.13,3.13.13.13-3.13Z"/><path class="cls-9" d="M158.35,470.29c-67.41,34.23,22,175.6,75.26,227.34h87.8C301,604.61,239.88,428.9,158.35,470.29Z"/><path class="cls-10" d="M282.54,696.43l1.2,2.14,2.13-1.2-1.2-2.14Zm-3.45-6.12,2.14-1.2L280,687l-2.14,1.2Zm-.82,8.52L276.13,700l1.2,2.13,2.14-1.2Zm-3.45-6.12-1.2-2.13-2.13,1.2,1.2,2.13ZM190.07,542.05l-1.2-2.14-2.13,1.2,1.2,2.14Zm19,33.68-2.13,1.2,1.2,2.14,2.13-1.2Zm-14.68-36.08,2.14-1.2-1.2-2.14-2.14,1.2Zm18.95,33.68,1.2,2.14,2.14-1.2-1.2-2.14Zm51,92.54-.9,2.28,2.28.9.9-2.28Zm10-57.89,2.43-.23-.23-2.44-2.44.23Zm-14.52,56.09-2.28-.9-.9,2.28,2.28.9Zm9.64-55.62-.23-2.44-2.44.23.23,2.44Zm-5.23,55.32,1.2,2.13,2.14-1.2-1.2-2.13ZM247.4,634l2.13-1.2-1.2-2.13-2.13,1.2Zm12.49,32.21-2.13,1.2,1.2,2.14,2.13-1.2Zm-16.76-29.81-1.2-2.13-2.14,1.2,1.2,2.14Zm16.76,29.81-1.2-2.14-2.13,1.21,1.2,2.13Zm14.93,26.54-2.13,1.2,1.2,2.14,2.13-1.2Zm-10.66-28.94,2.14-1.2-1.2-2.14-2.14,1.2Zm14.93,26.54,1.2,2.13,2.14-1.2-1.2-2.13ZM245,632.73l2.43-.27-.26-2.43-2.44.26ZM204.7,621l1.47-2-2-1.47-1.47,2Zm40.83,16.64.26,2.43,2.44-.26-.27-2.44Zm-43.77-12.72-2-1.47-1.47,2,2,1.48ZM247.4,634l1.2,2.14,2.13-1.2-1.2-2.14Zm-15.16-27,2.13-1.2-1.2-2.13-2.13,1.2Zm10.89,29.35L241,637.57l1.2,2.13,2.14-1.2ZM228,609.42l-1.2-2.14-2.14,1.2,1.2,2.14Zm4.37-.21-1,2.24,2.24,1,1-2.24Zm7.87-23,2.38.6h0Zm-12.35,21-2.24-1-1,2.24,2.24,1Zm7.6-22.17-2.37-.61h0ZM237.58,561l-.51-2.4-2.39.52.51,2.39Zm4.8-1,2.39-.51-.51-2.39-2.4.51ZM232.24,607l1.2,2.14,2.14-1.2-1.21-2.14Zm-19-33.68,2.14-1.2-1.2-2.14-2.14,1.21ZM228,609.42l-2.14,1.2,1.21,2.13,2.13-1.2ZM209,575.73l-1.2-2.13-2.13,1.2,1.2,2.13Zm2-3.65,2.45-.08-.08-2.45-2.45.08ZM180,564.45l1.23-2.11-2.11-1.24-1.24,2.12ZM211.24,577l.09,2.45,2.44-.08-.08-2.45Zm-33.74-8.29-2.11-1.24-1.24,2.12,2.12,1.23ZM277,689.06h2.45v-2.45H277Zm-36.72-15.42,1.49-1.95-1.94-1.48-1.49,1.94ZM277,694v2.45h2.45V694Zm-39.69-16.43-2-1.49-1.49,2,1.95,1.49Zm47.4,17.7-3.44-6.12-4.27,2.4,3.44,6.12Zm-5.2,5.74,4.27-2.4-2.4-4.27-4.27,2.4Zm-6.78-7.06,3.44,6.13,4.27-2.41L277,691.51Zm5.2-5.74-4.27,2.41,2.4,4.27,4.27-2.41ZM187.94,543.25l18.95,33.68,4.27-2.4-18.95-33.68Zm5.2-5.74-4.27,2.4,2.41,4.27,4.27-2.4Zm22.29,34.62-19-33.68-4.27,2.4,18.95,33.68Zm-5.21,5.74,4.27-2.4-2.4-4.27-4.27,2.4Zm56.37,88.9c4.17-10.58,12.19-37.28,10.11-59l-4.87.47c2,20.58-5.72,46.41-9.8,56.75Zm-7.74-.42,4.56,1.8,1.8-4.56-4.56-1.8Zm8.1-57.67c1.85,19.42-5.49,44.38-9.48,54.49L262,665c4.08-10.34,11.76-36.17,9.8-56.75Zm7.08-3.14-4.87.47.46,4.88,4.88-.47Zm-7.73,57-16.77-29.81-4.27,2.4L262,665Zm-5.21,5.74,4.27-2.41-2.4-4.27-4.27,2.4ZM241,637.57l16.77,29.8L262,665l-16.77-29.81Zm5.21-5.74-4.27,2.4,2.4,4.27,4.27-2.4Zm11.56,35.54,14.93,26.54,4.27-2.4L262,665Zm5.2-5.74-4.27,2.4,2.4,4.28,4.27-2.41Zm18.27,27.48L266.3,662.57,262,665,277,691.51ZM276,694.85l4.27-2.41-2.4-4.27-4.27,2.41Zm-31.29-64.56c-6.6.72-24.13-.47-38.56-11.29l-2.94,3.92c15.68,11.75,34.56,13.06,42,12.24Zm3.23,7-.53-4.87-4.87.53.53,4.87Zm-47.67-10.49c16.93,12.69,37.15,14.11,45.5,13.19l-.53-4.87c-7.47.82-26.35-.49-42-12.24Zm2.45-7.35-2.94,3.92,3.92,2.93,2.94-3.92Zm46.79,13.27-15.16-27-4.27,2.41,15.16,26.94Zm-5.2,5.74,4.27-2.4-2.4-4.27-4.27,2.4Zm-18.5-27.88,15.16,27,4.27-2.41L230.1,608.22Zm5.21-5.74-4.27,2.4,2.4,4.27,4.27-2.4Zm3.54,5.32a156,156,0,0,0,8-23.35l-4.75-1.2a151.75,151.75,0,0,1-7.74,22.57Zm-7.71-.74,4.48,2,2-4.48-4.48-2Zm6.22-25a146.33,146.33,0,0,1-7.47,21.79l4.48,2a151.75,151.75,0,0,0,7.74-22.57Zm2.1-23c1.22,5.68.14,14.13-2.1,23l4.75,1.21c2.27-8.95,3.61-18.35,2.14-25.2Zm6.67-3.93-4.79,1,1,4.79,4.79-1Zm.73,29.31c2.3-9.06,3.9-19.39,2.18-27.43l-4.79,1c1.47,6.85.13,16.25-2.14,25.2Zm-8.22,19-18.94-33.68-4.27,2.4,18.94,33.69Zm-5.2,5.74,4.27-2.4-2.4-4.27-4.27,2.4Zm-22.28-34.62,18.94,33.69,4.27-2.4-18.94-33.69Zm5.2-5.73-4.27,2.4,2.4,4.27,4.27-2.4Zm-1.1-1.57c-5.38.19-19.11-1.06-29.79-7.29l-2.46,4.23c11.75,6.86,26.51,8.17,32.42,8Zm2.7,7.27-.17-4.9-4.9.17.17,4.9Zm-37.42-6.1c12.84,7.49,28.62,8.85,35.06,8.63l-.17-4.9c-5.91.21-20.67-1.1-32.42-8Zm1.58-7.58-2.46,4.23,4.23,2.47,2.47-4.23ZM277,686.61c-4.63,0-19.35-2.77-35.23-14.92l-3,3.9c16.65,12.73,32.4,15.92,38.2,15.92Zm2.45,7.35v-4.9h-4.9V694Zm-43.63-14.48C253.21,692.81,270,696.41,277,696.41v-4.9c-5.8,0-21.55-3.19-38.2-15.92Zm2.52-7.33-3,3.89,3.89,3,3-3.89Z"/><path class="cls-9" d="M736.89,489.11c67.42,34.23-21.95,175.6-75.25,227.34h-87.8C594.22,623.42,655.36,447.72,736.89,489.11Z"/><path class="cls-10" d="M612.71,715.25l-2.14-1.2-1.2,2.13,2.14,1.2Zm3.45-6.13,1.2-2.13-2.14-1.2-1.2,2.13Zm.82,8.53-1.2,2.13,2.13,1.21,1.21-2.14Zm3.45-6.13,2.13,1.21,1.2-2.14-2.13-1.2Zm84.74-150.66,2.14,1.2,1.2-2.13-2.14-1.2Zm-18.94,33.69-1.2,2.13,2.13,1.2,1.2-2.13Zm14.67-36.09,1.2-2.13L700,555.12l-1.2,2.14ZM682,592.15l-2.14-1.21-1.2,2.14,2.13,1.2Zm-51,92.53-2.28.9.9,2.28,2.28-.9ZM621,626.8l.23-2.44-2.44-.23-.23,2.44Zm14.52,56.08.9,2.28,2.28-.9-.9-2.28Zm-9.64-55.62,2.44.23.23-2.43-2.44-.23Zm5.22,55.32-2.13-1.2-1.2,2.14,2.13,1.2Zm16.77-29.8,1.2-2.14-2.14-1.2-1.2,2.14ZM635.35,685l-1.2,2.14,2.14,1.2,1.2-2.13Zm16.77-29.8,2.13,1.2,1.21-2.14-2.14-1.2ZM635.35,685l2.14,1.21,1.2-2.14-2.14-1.2Zm-14.92,26.54-1.2,2.14,2.13,1.2,1.2-2.13Zm10.65-28.94,1.21-2.13-2.14-1.2-1.2,2.13Zm-14.92,26.54-2.14-1.2-1.2,2.14,2.13,1.2Zm34.09-57.58.27-2.43-2.44-.27-.27,2.44Zm40.29-11.77,2-1.47-1.47-2-2,1.47Zm-40.82,16.64-2.44-.26-.26,2.43,2.43.27Zm43.76-12.72,1.47,2,2-1.47-1.47-2Zm-45.63,9.09-2.14-1.2-1.2,2.13,2.14,1.2ZM663,625.83l1.2-2.14-2.14-1.2-1.2,2.14Zm-10.89,29.35-1.2,2.13,2.13,1.21,1.2-2.14Zm15.16-26.95,2.13,1.2,1.2-2.13-2.13-1.2ZM662.9,628l-2.24,1,1,2.24,2.24-1Zm-7.87-23-2.37.61h0Zm12.35,21,1,2.24,2.24-1-1-2.24Zm-7.6-22.18,2.38-.6h0Zm-2.12-24.09,2.4.52.51-2.4-2.4-.51Zm-4.79-1,.52-2.4-2.4-.51-.51,2.39ZM663,625.83l-2.14-1.2-1.2,2.13,2.14,1.2Zm19-33.68,1.2-2.14-2.14-1.2-1.2,2.13Zm-14.68,36.08-1.2,2.14,2.13,1.2,1.2-2.14Zm19-33.68,2.13,1.2,1.2-2.14-2.13-1.2Zm-2.05-3.65.08-2.45-2.45-.09-.08,2.45Zm31.1-7.63,2.11-1.24-1.23-2.11L714,581.15ZM684,595.8l-2.45-.09-.09,2.45,2.45.08Zm33.74-8.3,1.23,2.12,2.12-1.24-1.24-2.11ZM618.29,707.87v-2.45h-2.45v2.45ZM655,692.45l2-1.49L655.46,689l-2,1.49Zm-36.71,20.32h-2.45v2.45h2.45ZM658,696.34l1.49,1.95,1.94-1.49-1.48-1.94Zm-43.14,20.11,3.45-6.13-4.27-2.4-3.45,6.13Zm3.34-.94-4.27-2.4-2.4,4.27,4.27,2.4Zm.11-5.19-3.45,6.13,4.28,2.4,3.44-6.12Zm-3.34.94,4.28,2.4,2.4-4.27-4.27-2.4ZM703,559.66l-18.95,33.69,4.27,2.4,18.95-33.69Zm-3.34.94L704,563l2.4-4.27-4.27-2.4Zm-15.61,32.75L703,559.66l-4.27-2.4-18.95,33.68Zm3.34-.94-4.27-2.4-2.41,4.27,4.28,2.4Zm-54.21,91.37c-4.09-10.34-11.76-36.17-9.8-56.75l-4.88-.46c-2.07,21.73,6,48.44,10.12,59Zm1.38-3.17L630,682.4l1.8,4.56,4.56-1.8ZM623.42,627c-2,20.58,5.71,46.41,9.8,56.75l4.56-1.8c-4-10.11-11.33-35.07-9.48-54.49Zm-2.67,2.21,4.88.46.46-4.87-4.88-.47Zm12.47,54.54L650,654l-4.27-2.4L629,681.38Zm3.33-.93-4.26-2.4-2.41,4.27,4.27,2.4ZM650,654l-16.76,29.8,4.27,2.41,16.76-29.81Zm-3.33.93,4.27,2.4,2.4-4.27-4.27-2.4Zm-13.43,28.87-14.93,26.54,4.27,2.41,14.93-26.54Zm-3.34.94,4.27,2.4,2.4-4.27-4.26-2.4Zm-11.59,25.6,14.93-26.54-4.27-2.4L614,707.92Zm3.34-.93-4.27-2.4L615,711.26l4.28,2.4ZM650,654c7.48.81,26.36-.49,42-12.25l-2.94-3.92c-14.43,10.82-32,12-38.55,11.3Zm2.17,2.7.54-4.87-4.88-.53-.53,4.87ZM692,641.73c-15.67,11.76-34.55,13.06-42,12.25l-.53,4.87c8.36.91,28.57-.5,45.5-13.2Zm-3.43-.49,2.94,3.92,3.92-2.94-2.94-3.92ZM650,654l15.16-27-4.27-2.4-15.16,27Zm3.34-.94-4.27-2.4-2.4,4.27,4.27,2.4Zm11.82-26L650,654l4.27,2.4,15.16-27Zm-3.33.93,4.27,2.41,2.4-4.27-4.27-2.41Zm3.33-.93a151.47,151.47,0,0,1-7.73-22.57l-4.75,1.21a157.45,157.45,0,0,0,8,23.34Zm1.25-3.23-4.48,2,2,4.48,4.48-2Zm-9-19.34A151.47,151.47,0,0,0,665.14,627l4.48-2a146.87,146.87,0,0,1-7.46-21.79Zm-2.14-25.2c-1.47,6.86-.13,16.25,2.14,25.2l4.75-1.2c-2.25-8.85-3.32-17.29-2.1-23Zm-2.91,1.88,4.79,1,1-4.79-4.78-1Zm5,23.32c-2.27-9-3.61-18.34-2.14-25.2l-4.79-1c-1.73,8-.12,18.38,2.18,27.44ZM665.14,627l19-33.68-4.27-2.41-19,33.69Zm3.34-.93-4.27-2.41-2.4,4.27,4.27,2.41Zm15.61-32.75-19,33.68,4.27,2.4,19-33.68Zm-3.34.93,4.28,2.4,2.4-4.27-4.27-2.4Zm3.34-.93c5.91.2,20.66-1.11,32.42-8L714,581.15c-10.68,6.23-24.41,7.49-29.78,7.3Zm2.36,2.53.17-4.9-4.89-.17-.17,4.9Zm30.06-10.5c-11.76,6.86-26.51,8.17-32.42,8l-.17,4.89c6.44.23,22.22-1.13,35.06-8.62Zm-3.35-.88,2.47,4.23,4.23-2.46L717.39,582ZM618.29,710.32c5.79,0,21.54-3.18,38.2-15.92l-3-3.89c-15.88,12.14-30.6,14.91-35.22,14.91Zm2.45,2.45v-4.9h-4.9v4.9Zm35.75-18.37c-16.66,12.74-32.41,15.92-38.2,15.92v4.9c7,0,23.74-3.59,41.18-16.93Zm-3.43-.46,3,3.89,3.9-3-3-3.9Z"/><circle class="cls-11" cx="692.99" cy="652.23" r="15.68"/><path class="cls-12" d="M758.84,627.14a3.15,3.15,0,0,1,3.14,3.14v25.08a31.36,31.36,0,0,1-31.36,31.36h-6.27A31.36,31.36,0,0,1,693,655.36V630.28a3.15,3.15,0,0,1,3.14-3.14Z"/><path class="cls-13" d="M745.42,627.14c1.52,21.26-3.79,54.16-35,56.33a31.26,31.26,0,0,0,13.92,3.25h6.27A31.36,31.36,0,0,0,762,655.36V630.28a3.15,3.15,0,0,0-3.14-3.14Z"/><path class="cls-8" d="M696.13,683.59h62.71a3.14,3.14,0,0,1,3.14,3.13h0a3.15,3.15,0,0,1-3.14,3.14H696.13a3.15,3.15,0,0,1-3.14-3.14h0A3.14,3.14,0,0,1,696.13,683.59Z"/><path class="cls-14" d="M710.54,620.87c3.32-3.48,8-12.28,0-19.6s-4.66-15.07-2-21.16"/><path class="cls-14" d="M729.35,620.87c3.33-3.48,8-12.28,0-19.6s-4.65-15.07-2-21.16"/><path class="cls-14" d="M748.17,620.87c3.32-3.48,8-12.28,0-19.6s-4.66-15.07-2-21.16"/><path class="cls-15" d="M277.51,500.15l47,84.66,26.65,89.37-40.76,22c-16.21-9.93-40.46-43.9-51.74-62.72S267.06,521.05,277.51,500.15Z"/><path class="cls-16" d="M616.17,500.15l-47,84.66-26.65,89.37,40.76,22c16.21-9.93,40.45-43.9,51.74-62.72S626.62,521.05,616.17,500.15Z"/><path class="cls-17" d="M235.4,557.78a3.08,3.08,0,0,1-1.32-3.26c7.25-31,30.26-103.06,69.32-163.68a12.32,12.32,0,0,1,6.37-5l101-34.67H461l102.09,35a11.6,11.6,0,0,1,5,3.36c21.47,25.1,49.52,89.06,83.06,164.54a3.15,3.15,0,0,1-1.14,3.91l-84,55H318.28Z"/><path class="cls-18" d="M488.07,360.51,461,351.2H410.78l-29,9.94c10.54,6.14,31.68,15.15,54.05,15.15C459,376.29,478.65,366.64,488.07,360.51Z"/><path class="cls-19" d="M367.35,254.1a3.32,3.32,0,0,0-.64-2.11l-8.12-10.69a3.14,3.14,0,0,0-.92-.82c-14.39-8.59-23.74-24.07-16.52-55a3.17,3.17,0,0,0,0-1.59c-2.37-9.47-2.68-29.54,14-40.15,12.94-8.22,21.47-8.93,26-7.7,1.84.5,4.17.28,5.43-1.15,11.64-13.22,38.64-29.87,71.07-9a3.41,3.41,0,0,0,3.6,0c9-5.48,27.4-12.45,41.14-3.39,13.55,8.93,17.74,22,18.33,28.71a3.6,3.6,0,0,0,1.36,2.57c8.9,7,21.18,23.43,9.13,41.3a4,4,0,0,0-.33,3.6c3.72,10.25-3.61,30.59-25.57,44.26a3.36,3.36,0,0,0-1.55,2.44c-2.39,19.47-20.31,69-42.78,72.7-27.33,4.5-32.11-1.4-53,0a2.53,2.53,0,0,1-1.19-.19C400.29,314.89,365.8,289.83,367.35,254.1Z"/><path class="cls-20" d="M409.21,351.77c7.32,5.75,28.54,13,54.88.49V313.57l-54.88,1.57Z"/><path class="cls-21" d="M510.16,241.43c5.17,16.78-11.62,27.11-24.53,20.66,0-1,1.72-15.93,2.59-23.24C493.81,234.11,506,228,510.16,241.43Z"/><path class="cls-21" d="M358,241.43c-5.17,16.78,11.62,27.11,24.53,20.66,0-1-1.72-15.93-2.58-23.24C374.38,234.11,362.16,228,358,241.43Z"/><path class="cls-22" d="M499.83,242.72c3.88,1.72,8.53,7.23-3.87,15.49"/><path class="cls-23" d="M440.57,332.39c17.3,0,17.19,12.27,13.74,23.59a70.53,70.53,0,0,0,9.78-3.82V313.57L414.72,315l-5.51,1.34v3.2C413,325,422.62,332.39,440.57,332.39Z"/><path class="cls-22" d="M368.36,242.72c-3.88,1.72-8.53,7.23,3.87,15.49"/><path class="cls-20" d="M435.46,326.11c51,0,59.31-60.35,56.31-92.48a3.22,3.22,0,0,0-2.22-2.7c-8.37-2.87-21.82-10.3-25.27-22.58a3.87,3.87,0,0,0-5-2.7c-11.94,4.77-32.07,9.77-44.85,2.71a3.8,3.8,0,0,0-5,1c-5.63,8.26-16.86,20.37-29.91,22a3.39,3.39,0,0,0-3.08,3.05C374.61,266.74,384.91,326.11,435.46,326.11Z"/><circle class="cls-8" cx="407.64" cy="257.13" r="6.27"/><path class="cls-24" d="M470.36,224.2c-6.27-6.27-13.65-5.7-18.82-3.47"/><path class="cls-24" d="M392,224.52c6.28-6.27,13.65-5.7,18.82-3.47"/><circle class="cls-25" cx="407.64" cy="247.72" r="20.38"/><circle class="cls-25" cx="457.81" cy="247.72" r="20.38"/><path class="cls-26" d="M650.9,553.6l.24.54a3.15,3.15,0,0,1-1.14,3.91l-76.49,50.07-143.92-92.3c71.5-1.25,119.68-48.6,134.84-72.12-1.57,14.11,15.68,108.19,26.65,123.86C599.4,579.44,632.74,564.13,650.9,553.6Z"/><path class="cls-8" d="M318.27,442l1.57-.1h0Zm-1.66-1.47-.1-1.56h0ZM323,517.3l-1.57.09ZM321.51,519l-.1-1.57h0Zm-1.66-1.47,1.56-.1Zm-4.71-75.26-1.56.1h0Zm249.29,0-1.57-.06h0Zm-1.5-1.63-.07,1.57h0Zm-1.64,76.89,1.57.06h0Zm-3.13-.13,1.56.06h0Zm3.13-75.26-1.56-.07h0Zm-241.45-.13a3.13,3.13,0,0,0-3.33-2.93l.2,3.13h0Zm4.7,75.26-4.7-75.26-3.13.2,4.7,75.25Zm-2.93,3.32a3.12,3.12,0,0,0,2.93-3.32l-3.13.19h0Zm-3.33-2.93a3.13,3.13,0,0,0,3.33,2.93l-.2-3.13h0Zm-4.7-75.26,4.7,75.26,3.13-.2-4.7-75.25Zm2.93-3.32a3.12,3.12,0,0,0-2.93,3.32l3.13-.19h0ZM566,442.27a3.14,3.14,0,0,0-3-3.27l-.13,3.14h0Zm-3.13,75.25L566,442.27l-3.13-.13-3.14,75.25Zm-3.27,3a3.15,3.15,0,0,0,3.27-3l-3.14-.13h0Zm-3-3.27a3.15,3.15,0,0,0,3,3.27l.13-3.14h0ZM559.73,442l-3.14,75.26,3.13.13,3.14-75.25Zm3.26-3a3.14,3.14,0,0,0-3.26,3l3.13.14h0Z"/><circle class="cls-8" cx="457.81" cy="257.13" r="6.27"/><rect class="cls-10" x="426.46" y="244.59" width="12.54" height="3.14"/><rect class="cls-10" x="376.29" y="244.59" width="12.54" height="3.14"/><rect class="cls-10" x="476.63" y="244.59" width="15.68" height="3.14"/><path class="cls-27" d="M430.49,266.54l-3.12,5.95a6.27,6.27,0,0,0,4.57,9.1l3.92.62"/><path class="cls-27" d="M424.89,302.6c5.23,2.09,18.5,3.76,29.79-6.28"/><path class="cls-28" d="M579.79,498.58a6.28,6.28,0,0,1,6.27,6.58l-8.79,178.73a6.29,6.29,0,0,1-6.27,6H322.68a6.28,6.28,0,0,1-6.27-6l-8.79-178.73a6.28,6.28,0,0,1,6.27-6.58Z"/><path class="cls-18" d="M456.22,564.75a.31.31,0,0,1,.41.32c-.49,3.47-2.79,9.54-8.73,9.77a.29.29,0,0,1-.31-.28C447.55,572.15,449.2,567.32,456.22,564.75Z"/><path class="cls-18" d="M440.59,568.15a.29.29,0,0,0-.4.32c.36,2.24,1.84,5.92,5.5,6.12a.28.28,0,0,0,.3-.28C446,572.75,444.88,569.78,440.59,568.15Z"/><path class="cls-18" d="M453.73,580.85l-2.66-4-4,2.67-4-2.66-2.65,4-4.69-.94-.92,4.7-4.7.93.95,4.69-4,2.66,2.67,4-2.66,4,4,2.65-.94,4.69,4.7.92.93,4.7,4.7-1,2.66,4,4-2.67,4,2.66,2.65-4,4.69.93.92-4.69,4.7-.94-.47-2.3a13.59,13.59,0,0,1-4.34-21.67l-.86-4.29Z"/><path class="cls-29" d="M583.23,499.6a6.29,6.29,0,0,1,2.83,5.56l-8.79,178.73a6.29,6.29,0,0,1-6.27,6H322.68a6.31,6.31,0,0,1-4.83-2.26C383.61,675.18,502,616.32,583.23,499.6Z"/><circle class="cls-30" cx="161.49" cy="669.47" r="1.57"/><ellipse class="cls-31" cx="225.59" cy="670.7" rx="43.74" ry="10.36" transform="translate(-262.47 158.33) rotate(-25.02)"/><path class="cls-32" d="M251.49,650.8c3.47,0,5.77.68,6.5,2.24,2.42,5.19-13.36,17.67-35.25,27.89-11.4,5.31-22.2,9-30.28,10.52-3.47,0-5.77-.68-6.5-2.25-2.42-5.18,13.36-17.67,35.25-27.88C232.61,656,243.41,652.34,251.49,650.8Z"/><ellipse class="cls-31" cx="197.27" cy="670.7" rx="43.74" ry="10.36" transform="translate(-265.13 146.35) rotate(-25.02)"/><path class="cls-32" d="M223.17,650.8c3.47,0,5.77.68,6.5,2.24,2.42,5.19-13.36,17.67-35.25,27.89-11.4,5.31-22.2,9-30.28,10.52-3.47,0-5.77-.68-6.5-2.25-2.42-5.18,13.36-17.67,35.25-27.88C204.29,656,215.09,652.34,223.17,650.8Z"/><ellipse class="cls-31" cx="164.91" cy="670.7" rx="43.74" ry="10.36" transform="translate(-268.17 132.66) rotate(-25.02)"/><path class="cls-32" d="M190.81,650.8c3.46,0,5.77.68,6.5,2.24,2.42,5.19-13.37,17.67-35.26,27.89-11.39,5.31-22.2,9-30.28,10.52-3.46,0-5.77-.68-6.5-2.25-2.42-5.18,13.37-17.67,35.25-27.88C171.92,656,182.73,652.34,190.81,650.8Z"/><ellipse class="cls-31" cx="112.31" cy="670.7" rx="10.36" ry="43.74" transform="translate(-542.96 488.84) rotate(-64.98)"/><path class="cls-32" d="M86.41,650.8c-3.46,0-5.77.68-6.5,2.24-2.42,5.19,13.36,17.67,35.25,27.89,11.4,5.31,22.2,9,30.28,10.52,3.47,0,5.78-.68,6.51-2.25,2.42-5.18-13.37-17.67-35.26-27.88C105.3,656,94.49,652.34,86.41,650.8Z"/><path class="cls-33" d="M250.35,679.23l-8.09,12.14H92.57l-8.09-12.14Z"/><path class="cls-34" d="M76.39,671.14H258.44a4,4,0,0,1,4.05,4.05h0a4,4,0,0,1-4.05,4h-182a4,4,0,0,1-4-4h0A4,4,0,0,1,76.39,671.14Z"/><circle class="cls-31" cx="252.37" cy="656.98" r="2.02"/><circle class="cls-31" cx="228.1" cy="665.07" r="2.02"/><circle class="cls-31" cx="224.05" cy="656.98" r="2.02"/><circle class="cls-31" cx="240.24" cy="656.98" r="2.02"/><circle class="cls-31" cx="199.78" cy="665.07" r="2.02"/><circle class="cls-31" cx="191.69" cy="656.98" r="2.02"/><circle class="cls-31" cx="244.28" cy="665.07" r="2.02"/><circle class="cls-31" cx="211.92" cy="656.98" r="2.02"/><circle class="cls-31" cx="167.42" cy="665.07" r="2.02"/><circle class="cls-31" cx="85.53" cy="656.98" r="2.02"/><circle class="cls-31" cx="215.96" cy="665.07" r="2.02"/><circle class="cls-31" cx="179.55" cy="656.98" r="2.02"/><circle class="cls-31" cx="109.8" cy="665.07" r="2.02"/><circle class="cls-31" cx="97.66" cy="656.98" r="2.02"/><circle class="cls-31" cx="93.62" cy="665.07" r="2.02"/><path class="cls-35" d="M25.09,50.17a6.28,6.28,0,0,0-6.28,6.27V181.87a6.27,6.27,0,0,0,6.28,6.27h250a6.27,6.27,0,0,1,5.34,3L295,214.79a1.57,1.57,0,0,0,2.9-.82V56.44a6.27,6.27,0,0,0-6.27-6.27Z"/><rect class="cls-10" x="47.04" y="84.66" width="210.09" height="18.81" rx="6.27"/><rect class="cls-10" x="131.7" y="131.7" width="125.43" height="18.81" rx="6.27"/><path class="cls-35" d="M859.19,310.44a6.27,6.27,0,0,1,6.27,6.27V442.14a6.27,6.27,0,0,1-6.27,6.27H594.53a6.29,6.29,0,0,0-5.26,2.84l-15.69,24.09a1.57,1.57,0,0,1-2.88-.85V316.71a6.27,6.27,0,0,1,6.27-6.27Z"/><rect class="cls-10" x="614.6" y="344.93" width="210.09" height="18.81" rx="6.27"/><rect class="cls-10" x="614.6" y="391.96" width="125.43" height="18.81" rx="6.27"/><path class="cls-35" d="M61.15,689.86H835.67A14.11,14.11,0,0,1,849.78,704h0a14.11,14.11,0,0,1-14.11,14.11H61.15A14.11,14.11,0,0,1,47,704h0A14.1,14.1,0,0,1,61.15,689.86Z"/><path class="cls-36" d="M848.31,697.7a14.12,14.12,0,0,1-12.64,7.84H61.15A14.13,14.13,0,0,1,48.5,697.7a14.12,14.12,0,0,1,12.65-7.84H835.67A14.1,14.1,0,0,1,848.31,697.7Z"/></g></g></svg>