<svg xmlns="http://www.w3.org/2000/svg" xmlns:xlink="http://www.w3.org/1999/xlink" viewBox="0 0 1000.45 878.14"><defs><style>.cls-1{fill:#72c6a6;}.cls-2{fill:#c4c4c4;}.cls-10,.cls-14,.cls-26,.cls-3{fill:#fff;}.cls-3{fill-opacity:0.4;}.cls-12,.cls-13,.cls-14,.cls-15,.cls-16,.cls-17,.cls-18,.cls-19,.cls-3,.cls-7,.cls-9{fill-rule:evenodd;}.cls-24,.cls-25,.cls-4,.cls-5,.cls-6{fill:none;}.cls-4,.cls-5,.cls-6{stroke:#fff;}.cls-4{stroke-width:1.52px;}.cls-5{stroke-width:2px;}.cls-6{stroke-width:1.54px;}.cls-7{fill:#bcc886;}.cls-17,.cls-8{fill:#783d37;}.cls-9{fill:#cae298;}.cls-11{fill:url(#linear-gradient);}.cls-12{fill:#ffdb7a;}.cls-13{fill:#fbc547;}.cls-15{fill:url(#linear-gradient-2);}.cls-16{fill:#fec2a7;}.cls-18{fill:#fed0b8;}.cls-19,.cls-22{fill:#ffddd1;}.cls-20{fill:#4bc7e9;}.cls-21{fill:#6ad6f3;}.cls-23{fill:url(#linear-gradient-3);}.cls-24,.cls-25{stroke:#783d37;stroke-linecap:round;}.cls-24{stroke-width:0.89px;}.cls-26{fill-opacity:0.6;}.cls-27{fill:#00286e;}</style><linearGradient id="linear-gradient" x1="350.9" y1="390.43" x2="425.4" y2="208" gradientTransform="matrix(1, 0, 0, -1, 0, 1060)" gradientUnits="userSpaceOnUse"><stop offset="0" stop-color="#ffddd1"/><stop offset="1" stop-color="#fec2a7"/></linearGradient><linearGradient id="linear-gradient-2" x1="473.47" y1="605.84" x2="477.91" y2="559.28" gradientTransform="matrix(1, 0, 0, -1, 0, 1060)" gradientUnits="userSpaceOnUse"><stop offset="0" stop-color="#fed0b8"/><stop offset="1" stop-color="#ffddd1"/></linearGradient><linearGradient id="linear-gradient-3" x1="493.39" y1="598.94" x2="671.83" y2="358.87" xlink:href="#linear-gradient"/></defs><g id="Layer_2" data-name="Layer 2"><g id="_01" data-name="01"><path class="cls-1" d="M504.93,878.14c-242.49,0-439.07-196.58-439.07-439.07S262.44,0,504.93,0,944,196.58,944,439.07,747.42,878.14,504.93,878.14Z"/><circle class="cls-2" cx="373.21" cy="310.48" r="15.68"/><path class="cls-3" d="M423.39,103.49A34.5,34.5,0,1,1,457.89,69,34.5,34.5,0,0,1,423.39,103.49Zm-215.27,267a26.22,26.22,0,1,1,26.22-26.22A26.22,26.22,0,0,1,208.12,370.45Zm503.8-163.82a26.54,26.54,0,1,0,26.54-26.54A26.54,26.54,0,0,0,711.92,206.63ZM831.09,536.29a34.5,34.5,0,1,1,34.5-34.5A34.49,34.49,0,0,1,831.09,536.29Zm-658.6,34.5a34.5,34.5,0,1,0,34.5-34.5A34.5,34.5,0,0,0,172.49,570.79ZM636.65,100.36a15.68,15.68,0,1,1,15.68-15.68A15.68,15.68,0,0,1,636.65,100.36ZM743.28,548.84A15.68,15.68,0,1,0,759,533.16,15.68,15.68,0,0,0,743.28,548.84Zm-646.06-91a15.69,15.69,0,1,1,15.68-15.68A15.69,15.69,0,0,1,97.22,457.89ZM818.55,263.44a15.68,15.68,0,1,0,15.68-15.68A15.68,15.68,0,0,0,818.55,263.44Z"/><circle class="cls-4" cx="215.27" cy="339.46" r="23.84"/><circle class="cls-5" cx="840.5" cy="498.66" r="31.36"/><circle class="cls-5" cx="219.53" cy="567.65" r="31.36"/><circle class="cls-6" cx="748.1" cy="204.22" r="24.12"/><circle class="cls-5" cx="439.07" cy="59.59" r="31.36"/><path class="cls-7" d="M772.43,787.81c12,34.63-66.77,53.82-102.77,53.91l-30.61-29.56C677.47,786.6,757.94,745.93,772.43,787.81Z"/><path class="cls-8" d="M652.89,824.44l-.46-1.52-1.52.45.45,1.53Zm3.26-1,1.53-.45-.46-1.53-1.52.46Zm-2.35,4-1.53.46.46,1.53,1.53-.46Zm3.26-1,.46,1.53,1.53-.46-.46-1.53Zm80.27-24,.45,1.53,1.53-.46-.45-1.52Zm-18,5.37-1.52.45.45,1.53,1.53-.46Zm17-8.42,1.52-.46-.45-1.52L736,798Zm-17.95,5.36-.45-1.53-1.53.46.45,1.53Zm-49.19,15.32-1.48-.61-.61,1.47,1.47.61Zm16.12-23.69,1.21-1-1-1.21-1.21,1Zm-13.18,24.91-.61,1.47,1.47.61.61-1.48Zm15.25-22.48,1,1.21,1.21-1-1-1.21Zm-17.18,20.34-.46-1.53-1.52.46.45,1.53Zm15.88-4.75,1.52-.45-.45-1.53-1.53.46Zm-15,7.8-1.52.46.45,1.53,1.53-.46Zm15.88-4.74.46,1.52,1.53-.45-.46-1.53Zm-15.88,4.74.46,1.53,1.53-.46-.46-1.52Zm-14.14,4.23-1.52.45.45,1.53,1.53-.45Zm13.23-7.28,1.53-.45-.46-1.53-1.53.45Zm-14.14,4.22-.45-1.52-1.53.46.46,1.52Zm31.7-8.46,1.22-1-1-1.22-1.23,1Zm17.75,9.32,1.58.2.2-1.58-1.58-.2ZM685.4,817l-1-1.22-1.22,1,1,1.23Zm19.8,10.44-.2,1.58,1.58.2.2-1.58Zm-19-13-.46-1.52-1.52.46.45,1.52Zm14.36-4.29,1.52-.45-.46-1.53-1.52.46Zm-13.45,7.35-1.52.45.45,1.53,1.53-.46Zm14.36-4.29.45,1.52,1.53-.45L703,812.8Zm-2-2.08-1.5-.55-.55,1.5,1.5.55Zm5-10.71,1.38.79h0Zm-2,11.81-.55,1.5,1.5.55.54-1.5Zm4.79-10.23-1.39-.79h0Zm7.24-9,.89,1.32,1.32-.89-.89-1.32Zm-1.78-2.65,1.32-.89-.88-1.32-1.33.89Zm-12.2,19.77-.46-1.52-1.53.46.46,1.52Zm17.94-5.36,1.53-.45-.46-1.53-1.52.45Zm-17,8.42-1.53.45.46,1.53,1.52-.46Zm17.94-5.36.46,1.52,1.53-.45-.46-1.53Zm.69-2.64,1.15-1.11L720.11,803,719,804.12Zm13.22,7.7,1.55.38.37-1.55-1.54-.38Zm-15.51-5.48-1.11-1.15-1.14,1.11,1.11,1.14Zm14.75,8.58-.38,1.54,1.55.38.38-1.55Zm-74.81,7.79,1.1-1.15-1.14-1.11-1.11,1.15Zm17.75,6.87,1.58.18.19-1.58-1.59-.18Zm-20-4.58L654.35,825l-1.1,1.15,1.14,1.1Zm19.6,7.75-.18,1.58,1.58.18.18-1.58ZM653.34,826l3.27-1-.91-3-3.27,1Zm2,1.07-.91-3-3.06.91.91,3.05Zm1.28-2-3.27,1,.92,3,3.26-1Zm-2-1.07.91,3.05,3.05-.91-.91-3ZM736.87,801l-17.94,5.36.91,3,17.94-5.36Zm-2-1.07.91,3,3.06-.91-.92-3.06Zm-16,6.43L736.87,801,736,798,718,803.31Zm2,1.07-.91-3.05-3.06.91.92,3.05Zm-50.16,13.33c2.06-5,8.08-16.57,15.69-23.09l-2.07-2.42c-8.19,7-14.44,19.16-16.57,24.29Zm2.08-.87-3-1.22-1.22,3,3,1.22Zm13.61-22.22c-7.61,6.52-13.63,18.11-15.69,23.09l2.94,1.21c2-4.83,7.78-15.85,14.82-21.87Zm-2.25-.17,2.07,2.42,2.42-2.07-2.07-2.42Zm-13.44,23.26L686.63,816l-.92-3-15.88,4.74Zm2,1.07-.91-3.05-3.06.91.92,3Zm13.9-5.82-15.88,4.75.91,3.05,15.88-4.75Zm-2-1.07.92,3,3.05-.91-.92-3.05Zm-13.89,5.82L656.61,825l.91,3.06,14.14-4.23Zm-2-1.07.92,3,3.05-.91-.91-3.05ZM656.61,825l14.14-4.22-.92-3.06-14.13,4.23Zm2,1.07-.91-3-3,.91.91,3.05Zm28-10a31.39,31.39,0,0,0,18.77,9.88l.4-3.16A28.29,28.29,0,0,1,689.07,814Zm-.21,2.24,2.45-2-2-2.45-2.45,2Zm19,7.64A31.39,31.39,0,0,1,686.63,816l-2.45,2a34.5,34.5,0,0,0,20.82,11ZM704,824.12l-.4,3.16,3.16.4.4-3.16ZM686.63,816,701,811.73l-.91-3.05L685.71,813Zm2,1.07-.92-3.05-3.05.91.92,3ZM701,811.73,686.63,816l.91,3.05,14.35-4.29Zm-2-1.07.91,3.05,3.06-.91-.92-3Zm2,1.07a73.85,73.85,0,0,1,4.9-10.47l-2.76-1.58a75.66,75.66,0,0,0-5.13,11Zm2-1-3-1.09-1.09,3,3,1.1Zm2.86-9.52a73.85,73.85,0,0,0-4.9,10.47l3,1.1a70.67,70.67,0,0,1,4.68-10Zm7.74-9.51c-2.82,1.9-5.51,5.62-7.74,9.51l2.77,1.58c2.19-3.82,4.58-7,6.75-8.44Zm-2.21-.43,1.78,2.65,2.64-1.78-1.78-2.65Zm-5.53,9.94c2.23-3.89,4.92-7.61,7.74-9.51l-1.78-2.64c-3.47,2.33-6.46,6.62-8.72,10.57ZM701,811.73l17.95-5.36-.91-3.06-17.95,5.37Zm2,1.07-.92-3-3,.91.91,3.05Zm16-6.43L701,811.73l.91,3,18-5.36Zm-2-1.07.92,3.05,3-.91-.91-3.05Zm2,1.07a32.57,32.57,0,0,0,14,8.14l.76-3.1a29.4,29.4,0,0,1-12.45-7.26Zm0,2.25,2.29-2.21L719,804.12l-2.3,2.21Zm14,5.89a32.57,32.57,0,0,1-14-8.14l-2.29,2.21a35.65,35.65,0,0,0,15.51,9Zm-1.17-1.93-.76,3.1,3.1.75.76-3.09ZM656.61,825c2,2,8.58,6.15,18.67,7.31l.37-3.16c-9.46-1.1-15.36-5-16.83-6.44Zm0,2.25,2.21-2.29-2.29-2.21L654.35,825Zm18.63,5.06c-10.09-1.16-16.65-5.36-18.67-7.31l-2.22,2.29c2.57,2.48,9.8,7,20.53,8.19Zm-1.39-1.76-.37,3.16,3.16.37.37-3.17Z"/><path class="cls-7" d="M250.07,797.22c-12,34.63,66.77,53.82,102.78,53.91l30.6-29.56C345,796,264.56,755.34,250.07,797.22Z"/><path class="cls-8" d="M369.61,833.85l1.53.46.45-1.53-1.52-.46Zm-3.26-1,.45-1.52-1.52-.46-.46,1.53Zm2.35,4-.46,1.53,1.53.46.46-1.53Zm-3.26-1-1.53-.46-.45,1.53,1.52.46Zm-80.27-24-1.52-.46-.46,1.53,1.53.46Zm17.95,5.36-.46,1.53,1.53.46.45-1.53Zm-17-8.41.45-1.53-1.52-.45-.46,1.52ZM304,814.25l1.53.46.45-1.53-1.52-.46Zm49.2,15.32.61,1.47,1.47-.61L354.7,829ZM337.1,805.88l1-1.21-1.21-1-1,1.21Zm13.18,24.9-1.47.61.61,1.47,1.47-.6ZM335,808.3l-1.21-1-1,1.21,1.21,1Zm17.18,20.35,1.53.46.45-1.53-1.52-.46Zm-15.88-4.75.46-1.52-1.53-.46-.45,1.53Zm15,7.8-.46,1.53,1.53.46.46-1.53ZM335.42,827l-1.53-.46-.45,1.53,1.52.45Zm15.88,4.74-1.53-.45-.45,1.52,1.52.46Zm14.14,4.23-.46,1.53,1.53.45.45-1.53Zm-13.23-7.28.46-1.53-1.53-.45-.46,1.52Zm14.14,4.22,1.53.46.45-1.53-1.53-.45Zm-31.7-8.46,1-1.22-1.22-1-1,1.22Zm-17.75,9.32-.19-1.58-1.58.2.19,1.58Zm20.2-7.28,1.22,1,1-1.23-1.22-1Zm-19.8,10.44-1.58.2.2,1.58,1.58-.2Zm19-13,1.53.46.46-1.53-1.53-.45ZM322,819.61l.45-1.52-1.52-.46-.46,1.53ZM335.42,827l-.46,1.52,1.53.46.45-1.53Zm-14.36-4.29-1.52-.46-.46,1.53,1.53.45Zm2-2.08.54,1.5,1.5-.55-.55-1.5Zm-5-10.71-1.38.79h0Zm2,11.81-1.49.55.55,1.49,1.49-.54Zm-4.78-10.23,1.38-.79h0Zm-7.25-9-1.32-.89-.89,1.32,1.32.89Zm1.78-2.65.89-1.32-1.33-.89-.88,1.32ZM322,819.61l1.52.46.46-1.53-1.53-.45Zm-18-5.36.46-1.53-1.53-.45-.46,1.53Zm17,8.42-.45,1.52,1.52.46.46-1.53Zm-17.94-5.37-1.53-.45-.45,1.52,1.52.46Zm-.69-2.63,1.11-1.14-1.15-1.11-1.11,1.14Zm-13.22,7.7-.37-1.55-1.55.38.38,1.55Zm15.51-5.49,1.15,1.11,1.1-1.14-1.14-1.11ZM290,825.47l-1.55.37.38,1.55,1.55-.38Zm74.82,7.79,1.14-1.11-1.1-1.15-1.15,1.11ZM347,840.13l-.18-1.58-1.58.18.18,1.58Zm20-4.58,1.11,1.14,1.14-1.1-1.1-1.15Zm-19.6,7.74-1.58.19.18,1.58,1.58-.18Zm22.67-11-3.27-1-.91,3,3.27,1Zm.16,5,.91-3.05-3.05-.92-.92,3.06Zm-5.25.1,3.26,1,.92-3-3.27-1Zm-.16-5-.91,3.05,3,.91.92-3Zm-80.1-18.95,17.94,5.36.91-3.05-17.94-5.37Zm-.16-5-.91,3.05,3.05.92.91-3Zm19.93,4.29-17.95-5.36-.91,3,17.94,5.37Zm.15,5,.92-3-3.06-.91-.91,3.05ZM354.7,829c-2.12-5.13-8.38-17.28-16.56-24.29l-2.08,2.42c7.61,6.52,13.64,18.11,15.69,23.09Zm-3.81,3.3,2.95-1.22-1.22-2.95-2.95,1.22ZM334,809.51c7,6,12.82,17,14.82,21.88l2.94-1.21c-2.05-5-8.08-16.57-15.69-23.09Zm1.9-4.66-2.07,2.42,2.42,2.07,2.07-2.42Zm16.78,22.27-15.88-4.74-.91,3,15.87,4.75Zm.16,5,.91-3-3.06-.92-.91,3.06ZM335,828.48l15.88,4.75.91-3.05-15.87-4.75Zm-.15-5-.92,3,3.05.91.92-3Zm16,9.78L365,837.46l.91-3.06-14.14-4.22Zm-.16-5-.91,3.06,3.06.91.91-3Zm16.12,3.16-14.13-4.23-.92,3.06,14.14,4.22Zm.16,5,.92-3-3.06-.91-.91,3.05Zm-33.53-13a28.35,28.35,0,0,1-16.72,8.76l.39,3.16a31.42,31.42,0,0,0,18.78-9.88Zm4.69,1.83-2.45-2-2,2.44,2.45,2ZM317.5,838.47a34.5,34.5,0,0,0,20.82-11l-2.44-2a31.42,31.42,0,0,1-18.78,9.88Zm-2.18-4.54.4,3.16,3.16-.4-.4-3.16Zm21.47-11.55-14.36-4.29-.91,3,14.36,4.29Zm.15,5,.92-3-3.05-.91-.92,3Zm-16.33-3.22L335,828.48l.92-3.05-14.36-4.29Zm-.16-5-.91,3.05,3,.91.91-3Zm4.06.88a76.53,76.53,0,0,0-5.12-10.95l-2.77,1.58a73.34,73.34,0,0,1,4.9,10.47Zm-3.94,3.15,3-1.1-1.09-3-3,1.09Zm-6.72-10.94a70.67,70.67,0,0,1,4.68,10l3-1.1a73.34,73.34,0,0,0-4.9-10.47Zm-6.75-8.44c2.17,1.46,4.57,4.62,6.75,8.44l2.77-1.58c-2.22-3.89-4.92-7.61-7.74-9.51Zm1.35-4.86-1.78,2.65,2.64,1.77,1.78-2.64Zm10.94,10.14c-2.27-4-5.26-8.24-8.73-10.57l-1.78,2.64c2.82,1.9,5.52,5.62,7.74,9.51Zm3,9-17.94-5.37-.92,3.06,17.95,5.36Zm.16,5,.91-3-3.05-.91-.91,3.05Zm-19.93-4.29,17.95,5.36.91-3.05-17.95-5.36Zm-.16-5-.91,3.05,3.05.91.92-3Zm-1.22-.24a29.41,29.41,0,0,1-12.44,7.26l.75,3.1a32.57,32.57,0,0,0,14-8.14Zm4.55,2.18-2.29-2.21-2.22,2.29,2.29,2.21ZM290.35,827c7.2-1.76,13.28-6.71,15.52-9l-2.3-2.21a32.57,32.57,0,0,1-14,8.14Zm-2.68-4.26.75,3.09,3.1-.75-.76-3.1Zm76,9.36c-1.47,1.42-7.37,5.34-16.83,6.44l.37,3.16c10.09-1.17,16.66-5.36,18.67-7.31Zm4.47,2.33-2.22-2.29-2.29,2.21,2.21,2.29Zm-20.57,10.44c10.73-1.24,18-5.71,20.53-8.19l-2.22-2.29c-2,2-8.58,6.14-18.67,7.31Zm-2.13-4.57.37,3.17,3.16-.37-.37-3.16Z"/><path class="cls-9" d="M762.31,617.4C828.1,657.09,727,793.74,669.18,842.22l-89-6.51C607.76,742.94,682.76,569.41,762.31,617.4Z"/><path class="cls-10" d="M619.68,837.37,617.61,836l-1.38,2.08,2.08,1.38Zm4-6,1.38-2.08L622.93,828,621.56,830Zm.2,8.7-1.37,2.08,2.07,1.37,1.38-2.07Zm3.95-6,2.07,1.38,1.38-2.08-2.08-1.37Zm97.06-146.4,2.08,1.37,1.37-2.07-2.07-1.38Zm-21.7,32.73-1.37,2.08,2.07,1.37,1.38-2.07ZM720.69,685l1.38-2.08L720,681.57l-1.37,2.07ZM699,717.75l-2.07-1.37-1.38,2.07,2.07,1.38Zm-58.56,90-2.38.74.74,2.38,2.38-.75Zm-5.8-59.4.41-2.46-2.45-.41-.42,2.45Zm10.55,57.91.74,2.38,2.38-.74-.75-2.38Zm-5.64-57.08,2.45.41.42-2.45-2.46-.42Zm1.19,56.45-2.08-1.37-1.37,2.07,2.07,1.38Zm19.2-29,1.38-2.08-2.08-1.37-1.38,2.07Zm-15,31.71-1.38,2.08,2.08,1.37,1.37-2.07Zm19.2-29,2.08,1.37,1.37-2.07-2.07-1.38Zm-19.2,29,2.07,1.38,1.38-2.08-2.08-1.37Zm-17.1,25.79-1.38,2.07,2.08,1.38,1.37-2.07Zm13-28.54,1.37-2.07L640,802.18l-1.38,2.08Zm-17.1,25.79L621.56,830l-1.38,2.08,2.07,1.37Zm38.82-55.83.46-2.44-2.45-.45-.45,2.44Zm41.71-8.94,2.1-1.34-1.35-2.1-2.09,1.35Zm-42.61,13.84-2.44-.45-.45,2.45,2.44.45Zm45.3-9.65,1.35,2.1,2.09-1.35L709,769.5Zm-46.92,5.83-2.08-1.38-1.37,2.08,2.07,1.37Zm17.36-26.19,1.38-2.07L676.59,747l-1.37,2.08Zm-13.21,28.94-1.38,2.07,2.08,1.38,1.38-2.08Zm17.36-26.19,2.07,1.38,1.38-2.08-2.07-1.37ZM677,752.7l-2.34.83.84,2.35,2.34-.84Zm-6.27-23.85,2.45-.44h0Zm11,22.17.84,2.34,2.34-.84-.84-2.34Zm-6.06-23-2.45.43h0Zm-.36-24.57,2.39.7.7-2.39L676,701Zm-4.78-1.4.7-2.38-2.39-.7-.7,2.39Zm6.78,48.47-2.07-1.37-1.38,2.07,2.08,1.38ZM699,717.75l1.38-2.07-2.08-1.38-1.37,2.08Zm-17.55,35.48-1.38,2.08,2.08,1.37,1.37-2.07Zm21.7-32.73,2.08,1.38,1.37-2.08-2.07-1.37Zm-1.81-3.85.27-2.47-2.47-.27-.27,2.47Zm32.09-5.42,2.24-1.1-1.1-2.23L732.33,709ZM700.8,721.6l-2.48-.27-.26,2.48,2.47.26Zm34.81-5.9,1.09,2.23,2.24-1.09-1.09-2.24ZM625.89,830.31l.18-2.48-2.49-.18-.18,2.48Zm38.35-12.9,2.08-1.37L665,814l-2.08,1.37Zm-38.72,17.87L623,835.1l-.18,2.48,2.48.18ZM667,821.57l1.37,2.09,2.08-1.37-1.36-2.08Zm-45.2,17.18,3.94-6L621.56,830l-3.95,6Zm3.45-.7-4.15-2.76-2.75,4.16,4.15,2.75Zm.49-5.26-3.94,6,4.15,2.75,3.94-6Zm-3.45.7,4.15,2.75,2.75-4.14L625,829.34Zm100.52-147.1-21.7,32.74,4.15,2.75,21.7-32.74Zm-3.45.7,4.15,2.75,2.75-4.15-4.15-2.75Zm-18.25,32,21.7-32.74-4.15-2.75-21.7,32.74Zm3.45-.7-4.15-2.75-2.76,4.15,4.16,2.75ZM642.8,807c-3.37-10.79-9.23-37.54-5.72-58.25l-4.91-.83c-3.71,21.88,2.43,49.53,5.88,60.56Zm1.64-3.12-4.76,1.48,1.49,4.75,4.75-1.48Zm-7.36-55.13c-3.51,20.71,2.35,47.46,5.72,58.25l4.75-1.49c-3.29-10.54-8.87-36.38-5.56-55.93Zm-2.87,2,4.91.83.83-4.91-4.91-.83ZM642.8,807,662,778l-4.15-2.75-19.2,29Zm3.45-.7-4.15-2.75-2.75,4.15,4.15,2.75ZM662,778l-19.2,29,4.15,2.75,19.21-29Zm-3.45.7,4.15,2.75,2.76-4.15-4.15-2.75ZM642.8,807l-17.1,25.78,4.15,2.76L647,809.76Zm-3.45.7,4.15,2.75,2.75-4.15-4.15-2.75ZM625.7,832.79,642.8,807l-4.15-2.75L621.56,830Zm3.45-.69L625,829.34l-2.76,4.15,4.15,2.75ZM662,778c7.52,1.39,26.75,1.46,43.51-9.29l-2.69-4.19c-15.43,9.9-33.28,9.81-39.91,8.59Zm2,2.9.9-4.89-4.89-.91-.9,4.9Zm41.51-12.19c-16.76,10.75-36,10.68-43.51,9.29l-.9,4.9c8.4,1.54,29,1.61,47.1-10Zm-3.44-.75,2.69,4.19L709,769.5l-2.69-4.19ZM662,778l17.37-26.18-4.15-2.75-17.37,26.18Zm3.46-.7-4.15-2.75-2.76,4.15,4.15,2.75Zm13.91-25.48L662,778l4.16,2.75,17.35-26.18Zm-3.45.7,4.14,2.75,2.76-4.15-4.15-2.75Zm3.45-.7a154.55,154.55,0,0,1-6.17-23.45l-4.9.87a158.76,158.76,0,0,0,6.38,24.25Zm1.5-3.18-4.69,1.67,1.68,4.69,4.69-1.68Zm-7.67-20.27a154.55,154.55,0,0,0,6.17,23.45l4.68-1.68a150,150,0,0,1-5.95-22.64Zm-.3-25.7c-2,6.84-1.34,16.46.3,25.7l4.9-.87c-1.61-9.13-2.07-17.77-.42-23.43Zm-3.09,1.69,4.78,1.4L676,701l-4.78-1.39Zm3.39,24c-1.64-9.24-2.3-18.86-.3-25.7l-4.78-1.39c-2.34,8-1.48,18.61.18,28Zm6.17,23.45,21.7-32.73-4.15-2.75-21.7,32.73Zm3.45-.7-4.15-2.75-2.75,4.15,4.14,2.75Zm18.25-32-21.7,32.73,4.14,2.75,21.71-32.73Zm-3.46.7,4.16,2.75,2.75-4.15-4.15-2.75Zm3.46-.7c6,.64,21,.41,33.45-5.67L732.33,709c-11.29,5.52-25.3,5.77-30.73,5.19Zm2.21,2.74.53-5-4.95-.54-.54,5Zm31.24-8.41c-12.43,6.08-27.48,6.31-33.45,5.67l-.54,4.94c6.51.71,22.6.5,36.17-6.14Zm-3.34-1.14,2.19,4.47,4.48-2.19-2.19-4.47ZM625.7,832.79c5.88.43,22.07-1.63,39.9-13.3l-2.73-4.16c-17,11.13-32.12,12.84-36.8,12.5Zm2.31,2.67.36-5-5-.36-.36,5Zm37.59-16c-17.83,11.67-34,13.73-39.9,13.3l-.36,5c7.06.52,24.33-1.89,43-14.1Zm-3.45-.72,2.73,4.17,4.17-2.73L666.32,816Z"/><path class="cls-9" d="M260.19,626.81c-65.79,39.69,35.27,176.34,93.13,224.81l89-6.51C414.74,752.35,339.74,578.82,260.19,626.81Z"/><path class="cls-10" d="M402.82,846.78l1.37,2.08,2.08-1.38-1.38-2.08Zm-3.95-5.95,2.08-1.38-1.38-2.07-2.07,1.37Zm-.2,8.7-2.08,1.38L398,853l2.07-1.37Zm-3.95-5.95-1.37-2.08-2.08,1.38,1.38,2.07Zm-97.06-146.4-1.38-2.08-2.07,1.38,1.37,2.07Zm21.7,32.73-2.08,1.38,1.38,2.07,2.08-1.38Zm-17.55-35.48,2.07-1.38L302.51,691l-2.08,1.37Zm21.7,32.73,1.38,2.07,2.07-1.37-1.37-2.08Zm58.56,90-.74,2.37,2.38.74.74-2.37Zm5.8-59.41,2.46-.41-.42-2.45-2.45.41Zm-10.55,57.92-2.37-.74-.75,2.37,2.38.75ZM383,758.59l-.42-2.46-2.45.42.41,2.45ZM381.77,815l1.38,2.07,2.07-1.37-1.37-2.08Zm-19.2-29,2.08-1.38-1.38-2.08L361.2,784Zm15.05,31.71-2.07,1.37,1.38,2.08,2.07-1.38Zm-19.2-29-1.37-2.08L355,788.13l1.38,2.07Zm19.2,29-1.37-2.08-2.08,1.38,1.38,2.07Zm17.1,25.79L392.65,845,394,847l2.08-1.38Zm-13-28.54,2.08-1.38-1.38-2.07L380.4,813Zm17.1,25.79,1.38,2.07,2.07-1.37L401,839.45ZM360.05,785l2.45-.45L362,782.1l-2.44.46Zm-41.71-8.94,1.34-2.09-2.09-1.35-1.35,2.1ZM361,789.9l.45,2.45,2.44-.45-.44-2.45Zm-45.3-9.65-2.1-1.34L312.21,781l2.09,1.35Zm46.92,5.83,1.38,2.07,2.07-1.38-1.37-2.07Zm-17.36-26.19,2.07-1.38-1.37-2.07-2.08,1.38Zm13.21,28.94-2.07,1.37,1.37,2.08,2.08-1.38Zm-17.36-26.19-1.37-2.07-2.08,1.37L339,764Zm4.42-.54-.84,2.35,2.35.84.83-2.35Zm6.27-23.85-2.45-.43h0Zm-11,22.18-2.34-.84-.84,2.34,2.34.84Zm6.06-23,2.45.43h0Zm.36-24.57-.7-2.39-2.39.7.7,2.39Zm4.78-1.4,2.39-.7-.7-2.39-2.39.7Zm-6.78,48.47,1.38,2.08,2.07-1.38-1.38-2.08Zm-21.7-32.73,2.08-1.38-1.38-2.07-2.07,1.37Zm17.55,35.48L339,764l1.37,2.07,2.08-1.37Zm-21.7-32.73L318,727.84l-2.07,1.37,1.37,2.08Zm1.81-3.85,2.47-.27-.27-2.47-2.47.27Zm-32.09-5.43,1.1-2.23-2.24-1.1-1.1,2.24ZM321.7,731l.27,2.47,2.47-.26-.26-2.48Zm-34.81-5.9-2.23-1.1-1.1,2.24,2.24,1.09ZM396.61,839.72l2.49-.18-.18-2.48-2.49.18Zm-38.35-12.9,1.37-2.09-2.08-1.36-1.37,2.08ZM397,844.69l.18,2.48,2.48-.18-.18-2.48ZM355.54,831l-2.09-1.36-1.36,2.08,2.08,1.36Zm49.35,14.42L401,839.45l-4.15,2.75,3.94,6ZM400,851.61l4.15-2.75-2.75-4.16-4.15,2.76ZM392.65,845l3.94,6,4.15-2.75-3.94-6Zm4.85-6.2-4.15,2.75,2.75,4.15,4.15-2.75ZM295.58,698.55l21.7,32.74,4.16-2.76L299.73,695.8Zm4.85-6.2-4.15,2.75,2.75,4.15,4.15-2.75Zm25.16,33.43-21.71-32.73-4.15,2.75,21.71,32.73Zm-4.85,6.2,4.15-2.75-2.75-4.15L318,727.84Zm63.71,85.92c3.45-11,9.59-38.68,5.88-60.56l-4.91.83c3.51,20.71-2.35,47.46-5.72,58.24Zm-7.87.15,4.75,1.48,1.49-4.75-4.75-1.48Zm3.93-59c3.31,19.55-2.27,45.39-5.56,55.93l4.75,1.48c3.37-10.78,9.23-37.53,5.72-58.24Zm6.95-3.7-4.91.83.83,4.91,4.91-.83Zm-3.61,58.36-19.2-29-4.15,2.75,19.2,29Zm-4.85,6.2,4.15-2.75L380.4,813l-4.15,2.75ZM356.35,790.2l19.2,29,4.15-2.75-19.2-29Zm4.85-6.2-4.15,2.75,2.75,4.15,4.15-2.75Zm14.35,35.16L392.65,845l4.15-2.75-17.1-25.79Zm4.85-6.2-4.15,2.75,2.75,4.15,4.15-2.75ZM401,839.45l-17.1-25.79-4.15,2.75,17.1,25.79Zm-4.85,6.2,4.15-2.75-2.75-4.15-4.15,2.75Zm-36.5-63.09c-6.64,1.22-24.49,1.3-39.92-8.59L317,778.16c16.76,10.75,36,10.67,43.5,9.29Zm3.8,6.89-.9-4.9-4.9.9.9,4.9Zm-49.1-7.1c18.1,11.61,38.7,11.54,47.1,10l-.9-4.9c-7.52,1.38-26.74,1.46-43.5-9.29Zm1.94-7.63-2.69,4.19,4.19,2.69,2.69-4.19Zm48.41,10-17.37-26.19-4.14,2.76,17.36,26.18Zm-4.85,6.2,4.15-2.75L361.2,784l-4.15,2.75ZM339,764l17.36,26.18,4.15-2.75-17.36-26.18Zm4.84-6.2-4.14,2.75,2.75,4.15,4.15-2.75Zm4,5.12a157.6,157.6,0,0,0,6.38-24.25l-4.9-.87a154.7,154.7,0,0,1-6.16,23.45Zm-7.87-.17,4.69,1.68,1.68-4.69-4.69-1.68ZM344.4,737a149.13,149.13,0,0,1-5.95,22.64l4.69,1.68a154.7,154.7,0,0,0,6.16-23.45Zm.42-23.43c1.66,5.66,1.19,14.3-.42,23.43l4.9.87c1.64-9.24,2.3-18.86.3-25.7Zm6.47-4.49-4.78,1.4,1.4,4.78,4.78-1.4Zm2.91,29.66c1.66-9.35,2.52-20,.18-28l-4.78,1.4c2,6.84,1.34,16.46-.3,25.7Zm-6.92,19.82-21.69-32.73-4.15,2.75,21.7,32.74Zm-4.84,6.21,4.15-2.75-2.76-4.15-4.14,2.75Zm-25.16-33.43L339,764l4.15-2.75-21.7-32.74Zm4.86-6.21L318,727.84l2.76,4.14,4.15-2.75Zm-1.24-1.49c-5.43.58-19.44.33-30.72-5.19L288,722.87c12.42,6.08,27.47,6.31,33.45,5.66Zm3.28,7.15-.54-5-4.95.54.54,4.95Zm-38.38-3.4c13.57,6.64,29.66,6.85,36.17,6.14l-.53-5c-6,.65-21,.42-33.45-5.66Zm1-7.8L284.66,724l4.47,2.19,2.19-4.47Zm109.59,117.7c-4.68.34-19.81-1.37-36.8-12.51l-2.73,4.17c17.83,11.67,34,13.73,39.9,13.3Zm3,7.27-.36-5-5,.36.37,5Zm-45.29-11.45c18.66,12.22,35.93,14.63,43,14.11l-.36-5c-5.87.43-22.07-1.63-39.9-13.3Zm2-7.61-2.73,4.17,4.17,2.73,2.73-4.17Z"/><path class="cls-11" d="M357.1,853.74c-7.91-16.76-21.58-70-24.66-90.07-2.51-16.31,1-81,3.13-111.34l65.86-28.22,43.91,111.33L403.45,867.08A436.83,436.83,0,0,1,357.1,853.74Z"/><path class="cls-12" d="M401.08,866.53l-5.92-192.25c-13.19,0-45.82-8.83-66-14.88a9.33,9.33,0,0,1-6.51-10.33c2.92-19.6,7.61-52.42,9.79-72,2.51-22.58,23-44.95,32.93-53.31l81.54-45.48,42.34-4.7c39.2,3.13,123.56,11.91,147.4,21.95,21.64,9.11,51.82,80.12,67.76,124A9.27,9.27,0,0,1,695.62,632h-8.79L668,718.19,674.13,843a441.2,441.2,0,0,1-273,23.51Z"/><path class="cls-13" d="M401.08,866.53l-5.92-192.25c-13.19,0-45.82-8.83-66-14.88a9.33,9.33,0,0,1-6.51-10.33c2.92-19.6,7.61-52.42,9.79-72,2.51-22.58,23-44.95,32.93-53.31l81.54-45.48,42.34-4.7c39.2,3.13,123.56,11.91,147.4,21.95,21.64,9.11,51.82,80.12,67.76,124A9.27,9.27,0,0,1,695.62,632h-8.79L668,718.19,674.13,843a441.2,441.2,0,0,1-273,23.51Z"/><path class="cls-14" d="M490.82,514.34c16.84-2.93,29-18.52,37-37.19-14.7-1.53-28.21-2.75-38.56-3.58l-42.34,4.7-24,13.4C434.06,504.88,457.81,520.08,490.82,514.34ZM395.16,653.9l-70.77-16.65c-.78,5.37-1.5,10.29-2.13,14.47a6.23,6.23,0,0,0,4.33,6.9c19.85,6,54.8,15.66,68.57,15.66ZM700,632a6.22,6.22,0,0,0,5.88-8.29q-.95-2.64-2-5.45L616.26,610v20.39l69,8.63,1.54-7.06Z"/><path class="cls-15" d="M446.91,476.45a3.11,3.11,0,0,1-1.58,2.72l-9.4,5.37c5.23,6.8,22.58,19.45,50.18,15.69,7.84-2.1,22.27-10,29.8-25.09H504.24a3.13,3.13,0,0,1-3-2.38l-7.25-29h-47Z"/><path class="cls-16" d="M495.26,496.35c-.9-15.27-3.58-37.55-9.15-35.33-6.27,2.51-15.16,1.05-18.82,0l22.18-17.25H494l7.25,29a3.13,3.13,0,0,0,3,2.38h11.67A50.93,50.93,0,0,1,495.26,496.35Z"/><path class="cls-17" d="M379.48,376.34c-7-20.61-16.79-63.67-1.88-77a3.77,3.77,0,0,0,1.25-3.7c-4.56-18-3.33-52.41,35.13-62,7.69-1.4,11.19,2.33,12.51,7.17.85,3.1,6,5.56,8.44,3.45,17.38-15.1,47.82-32.16,76.27-18.46,10.46,4.75,8.37,14,4.24,20.94-1.39,2.34.15,5.77,2.88,5.91,22.27,1.15,57.38,7.78,61.88,28,4.26,19.16-10.76,26.13-22.43,27.8a3.66,3.66,0,0,0-2.71,5.34c12.64,21,27.36,56.36,3.55,62.42a3.61,3.61,0,0,0-.69.26L522.34,394.3a3.13,3.13,0,0,0-1.73,2.8v31.21a3.13,3.13,0,0,1-2.92,3.12l-86.46,6.07C419.73,439.59,393.28,430.29,379.48,376.34Z"/><path class="cls-18" d="M377,353.54c-7.49,11.85,12.47,48.52,30.57,40.89l-5.92-35.27C395.89,353.33,383,344.05,377,353.54Z"/><path class="cls-19" d="M468.25,460.26a16.16,16.16,0,0,0,10.07.45c18.33-5.61,44.57-28.87,48.56-68.68L510.69,324.4c-5.4.35-17.91-1.08-30.13-8.57-1.46-.9-4.3,1.22-4.28,2.93.1,10.1-12.45,19.21-62.89,5.66a1.64,1.64,0,0,0-2.05,1.44c-.65,10-3.3,28.05-9.73,33.3C401,386.06,418.18,442.65,468.25,460.26Z"/><path class="cls-20" d="M522.14,397.34h0a6.26,6.26,0,0,1,6.58,5.94l4.85,94a6.27,6.27,0,0,1-5.94,6.59h0a6.27,6.27,0,0,1-6.59-5.94l-4.85-94A6.29,6.29,0,0,1,522.14,397.34Z"/><circle class="cls-21" cx="518.01" cy="361.38" r="43.91"/><circle class="cls-22" cx="518.01" cy="361.38" r="34.5"/><circle class="cls-8" cx="518.01" cy="361.38" r="12.54"/><path class="cls-20" d="M531.09,449.11l2.48,48.13a6.27,6.27,0,0,1-5.94,6.59h0a6.29,6.29,0,0,1-6.59-5.94l-2.48-48.13Z"/><path class="cls-23" d="M542.94,505.71c9.33,79.74,23.39,238.18,110.08,238,49.19-.11,42.78-75.56,33.43-113.28L631.84,625c-4.68-.47-16-35.85-27.6-70.53-10.91-32.62-13.4-54.93-19.8-69.76-11.59-26.9-27.59-54.77-32.28-55.24-3.74-.38-17-13.27-23.24-19.67l-.16,17.32c-5.2-.52-17-.44-22.47,4.05-6.87,5.62,4.67,47.75,6.85,57.42C514.88,496.28,533.73,503.21,542.94,505.71Z"/><path class="cls-17" d="M552,431l-28.09-2.82a1.56,1.56,0,0,1-1.39-1.29,51.83,51.83,0,0,1,6.23.2V425.5l19.57,2a10.29,10.29,0,0,0,3.82,2,3.91,3.91,0,0,1,1.46.59A1.57,1.57,0,0,1,552,431Zm-29.48,17c8.28-.24,16.77,0,22.77,1.19a1.57,1.57,0,0,0,.62-3.08c-6.37-1.28-15.17-1.49-23.48-1.24-6.69.19-13.15.69-17.94,1.17.1,1,.22,2.05.36,3.11C509.57,448.7,515.94,448.22,522.53,448Zm21.2,18.37c-4.19-.42-12.1.07-20.43.88-5.11.5-10.31,1.11-14.8,1.69-.22-1-.45-2-.67-3.07,4.58-.6,9.92-1.23,15.17-1.74,8.27-.81,16.49-1.33,21-.88a1.57,1.57,0,0,1-.31,3.12Zm-1.88,18.73c-4.2-.42-10.8-.06-17.44.58-4.1.4-8.17.9-11.61,1.38-.21-.88-.46-1.91-.75-3.06,3.56-.5,7.79-1,12.05-1.44,6.65-.65,13.52-1,18.06-.58a1.57,1.57,0,1,1-.31,3.12Z"/><circle class="cls-8" cx="432.5" cy="365.41" r="6.06"/><path class="cls-24" d="M438.5,342a18.09,18.09,0,0,0-13-1.3"/><path class="cls-25" d="M461.92,388.89l-3.12,5.95a6.28,6.28,0,0,0,4.57,9.11l3.92.62"/><path class="cls-25" d="M456.32,425c5.23,2.09,18.5,3.76,29.79-6.28"/><path class="cls-8" d="M627,611.88l2.88-1.24h0Zm-4.12-1.63-1.25-2.88h0Zm24.51,48.67,2.88-1.24h0Zm-1.63,4.13-1.25-2.88h0Zm-4.13-1.63-2.87,1.24h0Zm-20.38-47-2.88,1.24h0ZM401.43,580.2a6.26,6.26,0,0,0-6.27-6.27v6.27Zm0,94.08V580.2h-6.27v94.08Zm-6.27,6.28a6.27,6.27,0,0,0,6.27-6.28h-6.27Zm-6.27-6.28a6.28,6.28,0,0,0,6.27,6.28v-6.28Zm0-94.08v94.08h6.27V580.2Zm6.27-6.27a6.27,6.27,0,0,0-6.27,6.27h6.27Zm234.7,36.71a6.28,6.28,0,0,0-8.25-3.27l2.5,5.76h0Zm20.39,47-20.39-47-5.75,2.49,20.38,47ZM647,665.93a6.28,6.28,0,0,0,3.27-8.25l-5.76,2.49h0Zm-8.24-3.27a6.26,6.26,0,0,0,8.24,3.27l-2.49-5.76h0Zm-20.39-47,20.39,47,5.75-2.49-20.38-47Zm3.26-8.25a6.27,6.27,0,0,0-3.26,8.25l5.76-2.49h0Z"/><path class="cls-26" d="M497.13,388.85a34.81,34.81,0,0,1-10-12.15l46.24-46.24a34.64,34.64,0,0,1,12.14,10Z"/><path class="cls-26" d="M512.69,395.46a34.58,34.58,0,0,1-7-1.85L550.24,349a33.83,33.83,0,0,1,1.86,7Z"/><rect class="cls-27" x="611.56" y="304.21" width="388.89" height="144.27" rx="18.82"/><rect class="cls-10" x="627.24" y="319.89" width="112.9" height="112.9" rx="18.82"/><path class="cls-27" d="M707.21,382l-32.93,19a6.26,6.26,0,0,1-9.4-5.43v-38a6.26,6.26,0,0,1,9.4-5.43l32.93,19A6.26,6.26,0,0,1,707.21,382Z"/><path class="cls-10" d="M765.23,335.57H975.36a6.28,6.28,0,0,1,6.27,6.28h0a6.27,6.27,0,0,1-6.27,6.27H765.23a6.27,6.27,0,0,1-6.27-6.27h0A6.28,6.28,0,0,1,765.23,335.57Z"/><path class="cls-10" d="M765.23,370.07H925.18a6.27,6.27,0,0,1,6.27,6.27h0a6.27,6.27,0,0,1-6.27,6.28H765.23a6.28,6.28,0,0,1-6.27-6.28h0A6.27,6.27,0,0,1,765.23,370.07Z"/><path class="cls-10" d="M765.23,404.57h116a6.28,6.28,0,0,1,6.28,6.27h0a6.28,6.28,0,0,1-6.28,6.28h-116a6.28,6.28,0,0,1-6.27-6.28h0A6.27,6.27,0,0,1,765.23,404.57Z"/><rect class="cls-27" y="147.4" width="332.44" height="123.32" rx="16.09"/><rect class="cls-10" x="13.4" y="160.81" width="96.51" height="96.51" rx="16.09"/><path class="cls-27" d="M81.77,213.88,53.62,230.13a5.35,5.35,0,0,1-8-4.64V193a5.36,5.36,0,0,1,8-4.65l28.15,16.25A5.37,5.37,0,0,1,81.77,213.88Z"/><path class="cls-10" d="M131.37,174.21H311a5.36,5.36,0,0,1,5.36,5.36h0a5.37,5.37,0,0,1-5.36,5.37H131.37a5.38,5.38,0,0,1-5.37-5.37h0A5.37,5.37,0,0,1,131.37,174.21Z"/><path class="cls-10" d="M131.37,203.7H268.09a5.36,5.36,0,0,1,5.37,5.36h0a5.37,5.37,0,0,1-5.37,5.37H131.37a5.38,5.38,0,0,1-5.37-5.37h0A5.37,5.37,0,0,1,131.37,203.7Z"/><path class="cls-10" d="M131.37,233.19h99.19a5.36,5.36,0,0,1,5.36,5.36h0a5.36,5.36,0,0,1-5.36,5.37H131.37a5.37,5.37,0,0,1-5.37-5.37h0A5.37,5.37,0,0,1,131.37,233.19Z"/></g></g></svg>